<?xml version="1.0" encoding="UTF-8"?>
<svg xmlns="http://www.w3.org/2000/svg" xmlns:xlink="http://www.w3.org/1999/xlink" width="810pt" height="809.999993pt" viewBox="0 0 810 809.999993" version="1.2">
<defs>
<clipPath id="clip1">
  <path d="M 30.875 176.441406 L 644 176.441406 L 644 605 L 30.875 605 Z M 30.875 176.441406 "/>
</clipPath>
<clipPath id="clip2">
  <path d="M 30.875 176.441406 L 644 176.441406 L 644 605 L 30.875 605 Z M 30.875 176.441406 "/>
</clipPath>
<clipPath id="clip3">
  <path d="M 529 545 L 779.375 545 L 779.375 572 L 529 572 Z M 529 545 "/>
</clipPath>
</defs>
<g id="surface1">
<path style=" stroke:none;fill-rule:nonzero;fill:rgb(100%,100%,100%);fill-opacity:1;" d="M 600.257812 376.832031 C 599.773438 344.871094 573.679688 319.109375 541.53125 319.109375 C 530.292969 319.109375 519.785156 322.265625 510.855469 327.726562 C 510.863281 327.40625 510.882812 327.074219 510.882812 326.753906 C 510.882812 277.496094 470.859375 237.5625 421.492188 237.5625 C 407.222656 237.5625 393.738281 240.917969 381.769531 246.851562 C 362.9375 208.175781 323.1875 181.503906 277.191406 181.503906 C 213.835938 181.503906 162.363281 232.085938 161.039062 294.972656 C 127.53125 301.484375 102.238281 330.910156 102.238281 366.25 C 102.238281 372.949219 103.167969 379.4375 104.871094 385.597656 C 98.347656 382.207031 90.945312 380.261719 83.085938 380.261719 C 56.988281 380.261719 35.828125 401.375 35.828125 427.402344 C 35.828125 453.445312 56.988281 474.550781 83.085938 474.550781 C 88.035156 474.550781 92.808594 473.777344 97.289062 472.371094 C 99.445312 503.488281 125.417969 528.058594 157.148438 528.058594 C 174.949219 528.058594 190.941406 520.320312 201.925781 508.03125 C 213.230469 560.265625 259.769531 599.414062 315.5 599.414062 C 363.402344 599.414062 404.511719 570.496094 422.304688 529.203125 C 437.046875 541.226562 455.878906 548.445312 476.410156 548.445312 C 521.308594 548.445312 558.101562 513.925781 561.664062 470.035156 C 569.246094 474.496094 578.0625 477.09375 587.503906 477.09375 C 615.71875 477.09375 638.585938 454.277344 638.585938 426.136719 C 638.585938 402.386719 622.28125 382.492188 600.257812 376.832031 "/>
<g clip-path="url(#clip1)" clip-rule="nonzero">
<path style="fill:none;stroke-width:40;stroke-linecap:round;stroke-linejoin:round;stroke:rgb(14.898682%,16.468811%,18.818665%);stroke-opacity:1;stroke-miterlimit:10;" d="M 2931.995262 2234.96756 C 2929.996973 2367.123224 2822.347234 2473.645664 2689.718888 2473.645664 C 2643.355371 2473.645664 2600.005401 2460.594848 2563.165984 2438.014352 C 2563.198215 2439.338816 2563.278791 2440.711736 2563.278791 2442.0362 C 2563.278791 2645.71292 2398.16214 2810.834815 2194.497859 2810.834815 C 2135.628922 2810.834815 2079.999147 2796.960247 2030.622081 2772.425359 C 1952.930556 2932.346311 1788.941971 3042.632167 1599.185134 3042.632167 C 1337.812212 3042.632167 1125.461822 2833.479919 1119.998759 2573.448872 C 981.762312 2546.523488 877.416196 2424.850472 877.416196 2278.723328 C 877.416196 2251.022648 881.251621 2224.194176 888.277861 2198.722472 C 861.365426 2212.742408 830.827065 2220.786104 798.403221 2220.786104 C 690.737367 2220.786104 603.441164 2133.484545 603.441164 2025.863769 C 603.441164 1918.178385 690.737367 1830.909129 798.403221 1830.909129 C 818.821218 1830.909129 838.51403 1834.107225 856.998199 1839.921945 C 865.893806 1711.255113 973.043973 1609.659034 1103.947989 1609.659034 C 1177.385094 1609.659034 1243.360847 1641.656145 1288.676875 1692.470337 C 1335.314352 1476.485794 1527.311206 1314.61045 1757.227198 1314.61045 C 1954.848268 1314.61045 2124.461068 1434.183706 2197.849827 1604.926498 C 2258.668706 1555.210642 2336.360232 1525.361746 2421.061883 1525.361746 C 2606.290341 1525.361746 2758.079696 1668.096969 2772.776786 1849.580841 C 2804.056448 1831.135257 2840.428523 1820.394177 2879.379035 1820.394177 C 2995.779344 1820.394177 3090.117902 1914.738009 3090.117902 2031.097017 C 3090.117902 2129.301177 3022.852931 2211.563312 2931.995262 2234.96756 Z M 2931.995262 2234.96756 " transform="matrix(0.242395,0,0,-0.241843,-110.442949,917.34355)"/>
</g>
<path style=" stroke:none;fill-rule:nonzero;fill:rgb(61.959839%,86.268616%,68.629456%);fill-opacity:1;" d="M 543.4375 518.460938 C 553.398438 506.917969 557.289062 492.640625 560.847656 478 C 561.519531 475.269531 564.332031 473.238281 567.097656 473.257812 C 583.128906 473.371094 595.996094 476.960938 611.335938 469.441406 C 621.941406 464.234375 631.425781 455.996094 635.175781 444.492188 C 639.210938 432.152344 635.660156 418.511719 632.496094 406.335938 C 632.355469 405.804688 632.164062 405.332031 632.003906 404.824219 C 629.570312 420.855469 621.238281 437.585938 607.5 445.984375 C 590.902344 456.140625 573.554688 446.929688 562.257812 433.644531 C 559.238281 430.101562 556.246094 425.550781 551.890625 423.519531 C 545.273438 420.429688 537.292969 424.246094 531.675781 427.921875 C 518.722656 436.386719 515.789062 450.925781 513.382812 465.113281 C 510.53125 481.929688 506.707031 502.96875 489.597656 511.261719 C 474.816406 518.421875 458.410156 510.769531 447.234375 500.625 C 435.136719 489.628906 421.738281 478.425781 404.097656 483.222656 C 388.019531 487.597656 383.171875 500.359375 380.511719 515.105469 C 377.433594 532.214844 371.6875 547.027344 356.699219 557.128906 C 329.523438 575.425781 289.90625 567.460938 266.273438 546.960938 C 253.113281 535.550781 246.871094 520.832031 244.191406 503.902344 C 242.164062 491.054688 241.558594 476.6875 232.515625 466.390625 C 223.558594 456.1875 208.257812 450.539062 195.023438 454.417969 C 175.886719 460.03125 171.851562 484.035156 154.078125 490.042969 C 138.503906 495.304688 134.007812 474.003906 134.886719 463.0625 C 135.425781 456.242188 137.046875 448.703125 133.203125 442.480469 C 127.53125 433.285156 116.585938 432.011719 107.5625 436.046875 C 99.410156 439.683594 92.25 445.917969 83.121094 447.042969 C 68.625 448.835938 58.722656 436.847656 61.324219 422.859375 C 64.875 403.746094 83.464844 397.777344 100.042969 404.265625 C 110.164062 408.222656 120.957031 417.757812 132.246094 417.246094 C 148.644531 416.507812 143.523438 395.613281 138.628906 386.355469 C 129.859375 369.785156 118.128906 356.484375 132.871094 339.289062 C 140.691406 330.183594 149.554688 323.984375 148.671875 310.53125 C 148.457031 307.332031 147.914062 302.71875 146.847656 298.015625 C 142.792969 299.421875 138.710938 300.820312 134.964844 303.183594 C 127.207031 308.078125 121.007812 314.898438 116.027344 322.539062 C 106.1875 337.644531 102.316406 355.933594 105.070312 373.695312 C 106.1875 380.914062 96.550781 384.457031 93.433594 379.496094 C 92.96875 379.683594 92.476562 379.835938 91.898438 379.929688 C 79.894531 381.847656 66.296875 382.167969 55.332031 387.980469 C 42.550781 394.753906 36.394531 410.152344 35.570312 423.992188 C 34.765625 437.320312 38.714844 451.773438 48.96875 460.929688 C 60.019531 470.792969 77.023438 471.414062 91.046875 471.539062 C 92.742188 471.546875 94.078125 472.113281 95.082031 472.972656 C 97.316406 473.21875 99.304688 474.636719 99.882812 477.574219 C 104.285156 500.050781 115.617188 519.558594 139.101562 525.355469 C 156.457031 529.636719 180.441406 526.066406 193.601562 513.078125 C 196.574219 510.148438 200.351562 510.980469 202.632812 513.265625 C 203.921875 513.984375 204.925781 515.257812 205.285156 517.222656 C 207.238281 527.84375 214.242188 537.828125 219.992188 546.820312 C 225.480469 555.398438 231.835938 563.515625 239.429688 570.351562 C 257.683594 586.773438 282.304688 593.460938 306.183594 596.285156 C 349.890625 601.433594 399.5625 580.972656 418.441406 539.726562 C 417.324219 534.605469 424.433594 529.25 429.558594 533.765625 C 449.402344 551.308594 483.40625 550.835938 506.792969 541.925781 C 520.238281 536.808594 533.378906 528.816406 543.4375 518.460938 "/>
<path style="fill:none;stroke-width:40;stroke-linecap:round;stroke-linejoin:round;stroke:rgb(14.898682%,16.468811%,18.818665%);stroke-opacity:1;stroke-miterlimit:10;" d="M 1943.744874 2629.851656 C 1961.326591 2689.80788 1998.053201 2743.99784 2047.220769 2782.552663 " transform="matrix(0.242395,0,0,-0.241843,-110.442949,917.34355)"/>
<path style="fill:none;stroke-width:40;stroke-linecap:round;stroke-linejoin:round;stroke:rgb(14.898682%,16.468811%,18.818665%);stroke-opacity:1;stroke-miterlimit:10;" d="M 2514.884754 2300.78696 C 2542.296761 2346.804008 2554.141455 2400.28328 2562.344107 2453.164928 " transform="matrix(0.242395,0,0,-0.241843,-110.442949,917.34355)"/>
<path style="fill:none;stroke-width:40;stroke-linecap:round;stroke-linejoin:round;stroke:rgb(14.898682%,16.468811%,18.818665%);stroke-opacity:1;stroke-miterlimit:10;" d="M 2964.805871 2222.078264 C 2922.229432 2233.061624 2874.608926 2222.078264 2841.169823 2193.521529 " transform="matrix(0.242395,0,0,-0.241843,-110.442949,917.34355)"/>
<path style="fill:none;stroke-width:40;stroke-linecap:round;stroke-linejoin:round;stroke:rgb(14.898682%,16.468811%,18.818665%);stroke-opacity:1;stroke-miterlimit:10;" d="M 2795.515376 1834.462569 C 2756.484288 1858.254465 2728.121482 1898.795985 2719.145299 1943.601633 " transform="matrix(0.242395,0,0,-0.241843,-110.442949,917.34355)"/>
<path style="fill:none;stroke-width:40;stroke-linecap:round;stroke-linejoin:round;stroke:rgb(14.898682%,16.468811%,18.818665%);stroke-opacity:1;stroke-miterlimit:10;" d="M 2163.911152 1681.810017 C 2173.628636 1637.311257 2203.522388 1600.630066 2243.600966 1573.720834 " transform="matrix(0.242395,0,0,-0.241843,-110.442949,917.34355)"/>
<path style="fill:none;stroke-width:40;stroke-linecap:round;stroke-linejoin:round;stroke:rgb(14.898682%,16.468811%,18.818665%);stroke-opacity:1;stroke-miterlimit:10;" d="M 1121.948701 2609.661656 C 1117.065787 2562.158624 1134.147931 2512.86272 1167.29696 2478.523568 " transform="matrix(0.242395,0,0,-0.241843,-110.442949,917.34355)"/>
<path style="fill:none;stroke-width:40;stroke-linecap:round;stroke-linejoin:round;stroke:rgb(14.898682%,16.468811%,18.818665%);stroke-opacity:1;stroke-miterlimit:10;" d="M 853.001622 2215.795136 C 892.06494 2194.5068 925.423467 2162.865033 948.790551 2124.972441 " transform="matrix(0.242395,0,0,-0.241843,-110.442949,917.34355)"/>
<path style="fill:none;stroke-width:40;stroke-linecap:round;stroke-linejoin:round;stroke:rgb(14.898682%,16.468811%,18.818665%);stroke-opacity:1;stroke-miterlimit:10;" d="M 851.792979 1838.096769 C 874.499339 1856.493897 893.595887 1879.300521 907.696714 1904.885289 " transform="matrix(0.242395,0,0,-0.241843,-110.442949,917.34355)"/>
<path style="fill:none;stroke-width:40;stroke-linecap:round;stroke-linejoin:round;stroke:rgb(14.898682%,16.468811%,18.818665%);stroke-opacity:1;stroke-miterlimit:10;" d="M 1300.666606 1649.376801 C 1285.357137 1698.204297 1283.600577 1751.215161 1295.622539 1800.979473 " transform="matrix(0.242395,0,0,-0.241843,-110.442949,917.34355)"/>
<path style="fill:none;stroke-width:30;stroke-linecap:round;stroke-linejoin:round;stroke:rgb(14.898682%,16.468811%,18.818665%);stroke-opacity:1;stroke-miterlimit:10;" d="M 1220.976792 2623.374704 C 1266.212244 2772.619183 1392.652341 2894.534479 1543.523128 2934.219943 " transform="matrix(0.242395,0,0,-0.241843,-110.442949,917.34355)"/>
<path style="fill:none;stroke-width:30;stroke-linecap:round;stroke-linejoin:round;stroke:rgb(14.898682%,16.468811%,18.818665%);stroke-opacity:1;stroke-miterlimit:10;" d="M 1632.027973 2942.780503 C 1649.367961 2943.491191 1666.836871 2940.244639 1682.774834 2933.331583 " transform="matrix(0.242395,0,0,-0.241843,-110.442949,917.34355)"/>
<path style="fill:none;stroke-width:30;stroke-linecap:round;stroke-linejoin:round;stroke:rgb(14.898682%,16.468811%,18.818665%);stroke-opacity:1;stroke-miterlimit:10;" d="M 2301.793063 1642.043793 C 2344.724036 1614.375418 2397.227457 1601.95453 2448.006548 1607.462362 C 2498.785639 1612.970194 2547.421404 1636.374441 2583.390598 1672.619529 " transform="matrix(0.242395,0,0,-0.241843,-110.442949,917.34355)"/>
<path style="fill:none;stroke-width:30;stroke-linecap:round;stroke-linejoin:round;stroke:rgb(14.898682%,16.468811%,18.818665%);stroke-opacity:1;stroke-miterlimit:10;" d="M 2636.989855 1728.020889 C 2646.320573 1738.406625 2651.960904 1752.119673 2652.621628 1766.107305 " transform="matrix(0.242395,0,0,-0.241843,-110.442949,917.34355)"/>
<g clip-path="url(#clip2)" clip-rule="nonzero">
<path style="fill:none;stroke-width:40;stroke-linecap:round;stroke-linejoin:round;stroke:rgb(14.898682%,16.468811%,18.818665%);stroke-opacity:1;stroke-miterlimit:10;" d="M 2931.995262 2234.96756 C 2929.996973 2367.123224 2822.347234 2473.645664 2689.718888 2473.645664 C 2643.355371 2473.645664 2600.005401 2460.594848 2563.165984 2438.014352 C 2563.198215 2439.338816 2563.278791 2440.711736 2563.278791 2442.0362 C 2563.278791 2645.71292 2398.16214 2810.834815 2194.497859 2810.834815 C 2135.628922 2810.834815 2079.999147 2796.960247 2030.622081 2772.425359 C 1952.930556 2932.346311 1788.941971 3042.632167 1599.185134 3042.632167 C 1337.812212 3042.632167 1125.461822 2833.479919 1119.998759 2573.448872 C 981.762312 2546.523488 877.416196 2424.850472 877.416196 2278.723328 C 877.416196 2251.022648 881.251621 2224.194176 888.277861 2198.722472 C 861.365426 2212.742408 830.827065 2220.786104 798.403221 2220.786104 C 690.737367 2220.786104 603.441164 2133.484545 603.441164 2025.863769 C 603.441164 1918.178385 690.737367 1830.909129 798.403221 1830.909129 C 818.821218 1830.909129 838.51403 1834.107225 856.998199 1839.921945 C 865.893806 1711.255113 973.043973 1609.659034 1103.947989 1609.659034 C 1177.385094 1609.659034 1243.360847 1641.656145 1288.676875 1692.470337 C 1335.314352 1476.485794 1527.311206 1314.61045 1757.227198 1314.61045 C 1954.848268 1314.61045 2124.461068 1434.183706 2197.849827 1604.926498 C 2258.668706 1555.210642 2336.360232 1525.361746 2421.061883 1525.361746 C 2606.290341 1525.361746 2758.079696 1668.096969 2772.776786 1849.580841 C 2804.056448 1831.135257 2840.428523 1820.394177 2879.379035 1820.394177 C 2995.779344 1820.394177 3090.117902 1914.738009 3090.117902 2031.097017 C 3090.117902 2129.301177 3022.852931 2211.563312 2931.995262 2234.96756 Z M 2931.995262 2234.96756 " transform="matrix(0.242395,0,0,-0.241843,-110.442949,917.34355)"/>
</g>
<path style="fill:none;stroke-width:40;stroke-linecap:round;stroke-linejoin:round;stroke:rgb(14.898682%,16.468811%,18.818665%);stroke-opacity:1;stroke-miterlimit:10;" d="M 2278.361518 1263.683194 C 2292.301192 1231.686082 2331.090552 1216.761634 2365.899449 1219.265194 C 2400.708347 1221.720298 2432.858231 1237.775386 2464.605235 1252.312186 C 2496.336124 1266.88129 2530.194223 1280.481274 2565.00312 1277.54161 C 2615.073141 1273.374394 2656.521514 1236.063274 2705.624621 1225.241434 C 2807.811297 1202.660938 2887.8073 1301.301202 2988.15684 1271.56537 C 3028.235418 1259.69365 3084.139152 1226.226706 3124.21773 1214.30653 C 3176.753381 1198.71985 3238.28133 1220.977306 3268.674655 1266.687466 " transform="matrix(0.242395,0,0,-0.241843,-110.442949,917.34355)"/>
<path style="fill:none;stroke-width:40;stroke-linecap:round;stroke-linejoin:round;stroke:rgb(14.898682%,16.468811%,18.818665%);stroke-opacity:1;stroke-miterlimit:10;" d="M 2955.587959 1732.155801 C 2963.516652 1713.952497 2985.578403 1705.472697 3005.384021 1706.877921 C 3025.189639 1708.283145 3043.512656 1717.425177 3061.561714 1725.678849 C 3079.610772 1733.948673 3098.900703 1741.685481 3118.67409 1740.054129 C 3147.181933 1737.663633 3170.77463 1716.407601 3198.71844 1710.285993 C 3256.82996 1697.429001 3302.387717 1753.557201 3359.500093 1736.646057 C 3382.270914 1729.846065 3414.098494 1710.835161 3436.91766 1704.067473 C 3466.795297 1695.167721 3501.829808 1707.863193 3519.105335 1733.835609 " transform="matrix(0.242395,0,0,-0.241843,-110.442949,917.34355)"/>
<g clip-path="url(#clip3)" clip-rule="nonzero">
<path style="fill:none;stroke-width:40;stroke-linecap:round;stroke-linejoin:round;stroke:rgb(14.898682%,16.468811%,18.818665%);stroke-opacity:1;stroke-miterlimit:10;" d="M 2659.728445 1502.506666 C 2673.668119 1470.509554 2712.457478 1455.601258 2747.266376 1458.056362 C 2782.107504 1460.559922 2814.257389 1476.61501 2845.972162 1491.135658 C 2877.703051 1505.672458 2911.609495 1519.304746 2946.370047 1516.381234 C 2996.440068 1512.14941 3037.936786 1474.886746 3086.991548 1464.032602 C 3189.178223 1441.452106 3269.174227 1540.124674 3369.523766 1510.356538 C 3409.602344 1498.484818 3465.506079 1465.050178 3505.584657 1453.130002 C 3558.168653 1437.511018 3619.680488 1459.81693 3650.041582 1505.478634 " transform="matrix(0.242395,0,0,-0.241843,-110.442949,917.34355)"/>
</g>
</g>
</svg>
