<?xml version="1.0" encoding="UTF-8"?>
<svg xmlns="http://www.w3.org/2000/svg" xmlns:xlink="http://www.w3.org/1999/xlink" width="810pt" height="809.999993pt" viewBox="0 0 810 809.999993" version="1.2">
<defs>
<clipPath id="clip1">
  <path d="M 30.875 176.441406 L 644 176.441406 L 644 605 L 30.875 605 Z M 30.875 176.441406 "/>
</clipPath>
<clipPath id="clip2">
  <path d="M 30.875 176.441406 L 644 176.441406 L 644 605 L 30.875 605 Z M 30.875 176.441406 "/>
</clipPath>
</defs>
<g id="surface1">
<path style=" stroke:none;fill-rule:nonzero;fill:rgb(100%,100%,100%);fill-opacity:1;" d="M 600.0625 376.992188 C 599.578125 345.007812 573.492188 319.222656 541.355469 319.222656 C 530.121094 319.222656 519.617188 322.382812 510.691406 327.847656 C 510.699219 327.523438 510.71875 327.195312 510.71875 326.871094 C 510.71875 277.578125 470.707031 237.613281 421.355469 237.613281 C 407.09375 237.613281 393.613281 240.96875 381.648438 246.90625 C 362.824219 208.199219 323.085938 181.507812 277.105469 181.507812 C 213.773438 181.507812 162.320312 232.128906 160.996094 295.066406 C 127.496094 301.582031 102.214844 331.03125 102.214844 366.402344 C 102.214844 373.105469 103.144531 379.601562 104.847656 385.765625 C 98.324219 382.371094 90.921875 380.421875 83.066406 380.421875 C 56.980469 380.421875 35.824219 401.554688 35.824219 427.601562 C 35.824219 453.667969 56.980469 474.789062 83.066406 474.789062 C 88.015625 474.789062 92.789062 474.011719 97.265625 472.605469 C 99.421875 503.746094 125.386719 528.339844 157.105469 528.339844 C 174.898438 528.339844 190.886719 520.59375 201.867188 508.296875 C 213.167969 560.570312 259.6875 599.75 315.402344 599.75 C 363.285156 599.75 404.386719 570.808594 422.171875 529.484375 C 436.90625 541.519531 455.734375 548.742188 476.253906 548.742188 C 521.140625 548.742188 557.921875 514.195312 561.480469 470.269531 C 569.0625 474.730469 577.875 477.332031 587.3125 477.332031 C 615.519531 477.332031 638.375 454.5 638.375 426.335938 C 638.375 402.566406 622.078125 382.65625 600.0625 376.992188 "/>
<g clip-path="url(#clip1)" clip-rule="nonzero">
<path style="fill:none;stroke-width:40;stroke-linecap:round;stroke-linejoin:round;stroke:rgb(14.898682%,16.468811%,18.818665%);stroke-opacity:1;stroke-miterlimit:10;" d="M 2931.998911 2234.964179 C 2929.999934 2367.111654 2822.345335 2473.646275 2689.719641 2473.646275 C 2643.356264 2473.646275 2600.007475 2460.589691 2563.171482 2438.011001 C 2563.203724 2439.350552 2563.284328 2440.706241 2563.284328 2442.045792 C 2563.284328 2645.705902 2398.159132 2810.825689 2194.489141 2810.825689 C 2135.632157 2810.825689 2079.999329 2796.962147 2030.621366 2772.430618 C 1952.935306 2932.353594 1788.938565 3042.632501 1599.180811 3042.632501 C 1337.814532 3042.632501 1125.471558 2833.485075 1120.006612 2573.450865 C 981.754765 2546.53074 877.421047 2424.857582 877.421047 2278.717453 C 877.421047 2251.022647 881.257794 2224.183217 888.286456 2198.715617 C 861.364746 2212.74055 830.815859 2220.793993 798.396962 2220.793993 C 690.742363 2220.793993 603.432194 2133.481116 603.432194 2025.86517 C 603.432194 1918.168529 690.742363 1830.90407 798.396962 1830.90407 C 818.821996 1830.90407 838.521594 1834.115763 856.996013 1839.925862 C 865.894686 1711.264447 973.049541 1609.652271 1103.950311 1609.652271 C 1177.380484 1609.652271 1243.362855 1641.656233 1288.678381 1692.462321 C 1335.31581 1476.488029 1527.298233 1314.612214 1757.228982 1314.612214 C 1954.837558 1314.612214 2124.460453 1434.18728 2197.858385 1604.923496 C 2258.665984 1555.198731 2336.368165 1525.357417 2421.050646 1525.357417 C 2606.294581 1525.357417 2758.087888 1668.092183 2772.773922 1849.577082 C 2804.064365 1831.146157 2840.432855 1820.397474 2879.38067 1820.397474 C 2995.788855 1820.397474 3090.111565 1914.730887 3090.111565 2031.09426 C 3090.111565 2129.301072 3022.855652 2211.562391 2931.998911 2234.964179 Z M 2931.998911 2234.964179 " transform="matrix(0.242311,0,0,-0.242035,-110.394286,917.932774)"/>
</g>
<path style=" stroke:none;fill-rule:nonzero;fill:rgb(72.938538%,79.60968%,100%);fill-opacity:1;" d="M 543.257812 518.734375 C 553.21875 507.179688 557.109375 492.894531 560.667969 478.238281 C 561.339844 475.507812 564.148438 473.472656 566.914062 473.492188 C 582.9375 473.605469 595.800781 477.199219 611.136719 469.671875 C 621.738281 464.464844 631.21875 456.21875 634.96875 444.703125 C 639 432.355469 635.453125 418.703125 632.289062 406.515625 C 632.148438 405.988281 631.957031 405.515625 631.796875 405.003906 C 629.367188 421.050781 621.035156 437.792969 607.300781 446.199219 C 590.710938 456.363281 573.367188 447.144531 562.078125 433.851562 C 559.058594 430.304688 556.066406 425.746094 551.710938 423.714844 C 545.097656 420.625 537.117188 424.441406 531.503906 428.121094 C 518.554688 436.59375 515.621094 451.144531 513.21875 465.34375 C 510.367188 482.171875 506.542969 503.226562 489.441406 511.527344 C 474.664062 518.695312 458.261719 511.035156 447.09375 500.882812 C 434.996094 489.878906 421.601562 478.664062 403.96875 483.46875 C 387.894531 487.84375 383.050781 500.617188 380.390625 515.375 C 377.3125 532.5 371.570312 547.324219 356.585938 557.429688 C 329.417969 575.742188 289.816406 567.773438 266.191406 547.257812 C 253.035156 535.835938 246.796875 521.105469 244.117188 504.164062 C 242.09375 491.304688 241.488281 476.925781 232.449219 466.621094 C 223.492188 456.410156 208.199219 450.753906 194.964844 454.640625 C 175.835938 460.257812 171.804688 484.28125 154.039062 490.292969 C 138.46875 495.558594 133.972656 474.238281 134.851562 463.292969 C 135.390625 456.464844 137.007812 448.921875 133.167969 442.691406 C 127.496094 433.492188 116.554688 432.214844 107.535156 436.25 C 99.386719 439.890625 92.230469 446.132812 83.105469 447.257812 C 68.613281 449.054688 58.710938 437.054688 61.316406 423.054688 C 64.863281 403.925781 83.445312 397.953125 100.019531 404.445312 C 110.136719 408.410156 120.929688 417.949219 132.210938 417.4375 C 148.605469 416.699219 143.484375 395.785156 138.589844 386.519531 C 129.824219 369.9375 118.097656 356.625 132.835938 339.417969 C 140.652344 330.304688 149.511719 324.101562 148.632812 310.640625 C 148.414062 307.433594 147.875 302.820312 146.804688 298.113281 C 142.753906 299.519531 138.675781 300.921875 134.925781 303.285156 C 127.175781 308.179688 120.976562 315.007812 115.996094 322.65625 C 106.160156 337.773438 102.289062 356.078125 105.046875 373.851562 C 106.160156 381.074219 96.527344 384.621094 93.414062 379.65625 C 92.949219 379.847656 92.457031 379.996094 91.878906 380.09375 C 79.878906 382.011719 66.285156 382.332031 55.324219 388.148438 C 42.546875 394.925781 36.394531 410.335938 35.570312 424.1875 C 34.765625 437.527344 38.710938 451.992188 48.964844 461.15625 C 60.007812 471.027344 77.007812 471.648438 91.027344 471.773438 C 92.722656 471.78125 94.054688 472.347656 95.058594 473.210938 C 97.292969 473.457031 99.28125 474.875 99.859375 477.8125 C 104.257812 500.304688 115.589844 519.828125 139.0625 525.636719 C 156.414062 529.917969 180.390625 526.34375 193.546875 513.34375 C 196.519531 510.414062 200.292969 511.246094 202.574219 513.53125 C 203.863281 514.25 204.867188 515.527344 205.226562 517.496094 C 207.175781 528.121094 214.179688 538.113281 219.925781 547.117188 C 225.414062 555.699219 231.765625 563.820312 239.359375 570.667969 C 257.605469 587.097656 282.214844 593.792969 306.089844 596.621094 C 349.78125 601.773438 399.433594 581.292969 418.308594 540.015625 C 417.191406 534.890625 424.300781 529.53125 429.421875 534.050781 C 449.261719 551.605469 483.25 551.132812 506.628906 542.21875 C 520.070312 537.09375 533.207031 529.09375 543.257812 518.734375 "/>
<path style="fill:none;stroke-width:40;stroke-linecap:round;stroke-linejoin:round;stroke:rgb(14.898682%,16.468811%,18.818665%);stroke-opacity:1;stroke-miterlimit:10;" d="M 1943.746459 2629.857243 C 1961.334235 2689.814237 1998.041261 2743.993411 2047.225774 2782.549874 " transform="matrix(0.242311,0,0,-0.242035,-110.394286,917.932774)"/>
<path style="fill:none;stroke-width:40;stroke-linecap:round;stroke-linejoin:round;stroke:rgb(14.898682%,16.468811%,18.818665%);stroke-opacity:1;stroke-miterlimit:10;" d="M 2514.889733 2300.795829 C 2542.311187 2346.808585 2554.143843 2400.277636 2562.349322 2453.165676 " transform="matrix(0.242311,0,0,-0.242035,-110.394286,917.932774)"/>
<path style="fill:none;stroke-width:40;stroke-linecap:round;stroke-linejoin:round;stroke:rgb(14.898682%,16.468811%,18.818665%);stroke-opacity:1;stroke-miterlimit:10;" d="M 2964.804707 2222.085126 C 2922.229716 2233.059758 2874.608918 2222.085126 2841.174411 2193.518806 " transform="matrix(0.242311,0,0,-0.242035,-110.394286,917.932774)"/>
<path style="fill:none;stroke-width:40;stroke-linecap:round;stroke-linejoin:round;stroke:rgb(14.898682%,16.468811%,18.818665%);stroke-opacity:1;stroke-miterlimit:10;" d="M 2795.504229 1834.454686 C 2756.49193 1858.243813 2728.119349 1898.801532 2719.140072 1943.603852 " transform="matrix(0.242311,0,0,-0.242035,-110.394286,917.932774)"/>
<path style="fill:none;stroke-width:40;stroke-linecap:round;stroke-linejoin:round;stroke:rgb(14.898682%,16.468811%,18.818665%);stroke-opacity:1;stroke-miterlimit:10;" d="M 2163.908013 1681.810473 C 2173.628846 1637.314798 2203.51678 1600.630478 2243.59305 1573.726492 " transform="matrix(0.242311,0,0,-0.242035,-110.394286,917.932774)"/>
<path style="fill:none;stroke-width:40;stroke-linecap:round;stroke-linejoin:round;stroke:rgb(14.898682%,16.468811%,18.818665%);stroke-opacity:1;stroke-miterlimit:10;" d="M 1121.957227 2609.65101 C 1117.07263 2562.15345 1134.14454 2512.864443 1167.304994 2478.520303 " transform="matrix(0.242311,0,0,-0.242035,-110.394286,917.932774)"/>
<path style="fill:none;stroke-width:40;stroke-linecap:round;stroke-linejoin:round;stroke:rgb(14.898682%,16.468811%,18.818665%);stroke-opacity:1;stroke-miterlimit:10;" d="M 853.014179 2215.790852 C 892.07484 2194.503295 925.428743 2162.854394 948.78776 2124.975776 " transform="matrix(0.242311,0,0,-0.242035,-110.394286,917.932774)"/>
<path style="fill:none;stroke-width:40;stroke-linecap:round;stroke-linejoin:round;stroke:rgb(14.898682%,16.468811%,18.818665%);stroke-opacity:1;stroke-miterlimit:10;" d="M 851.789 1838.085998 C 874.487064 1856.484645 893.590194 1879.305422 907.695881 1904.885997 " transform="matrix(0.242311,0,0,-0.242035,-110.394286,917.932774)"/>
<path style="fill:none;stroke-width:40;stroke-linecap:round;stroke-linejoin:round;stroke:rgb(14.898682%,16.468811%,18.818665%);stroke-opacity:1;stroke-miterlimit:10;" d="M 1300.656123 1649.386892 C 1285.357499 1698.207863 1283.600333 1751.225017 1295.626439 1800.98206 " transform="matrix(0.242311,0,0,-0.242035,-110.394286,917.932774)"/>
<path style="fill:none;stroke-width:30;stroke-linecap:round;stroke-linejoin:round;stroke:rgb(14.898682%,16.468811%,18.818665%);stroke-opacity:1;stroke-miterlimit:10;" d="M 1220.971086 2623.369299 C 1266.206007 2772.624288 1392.657441 2894.539532 1543.515742 2934.225737 " transform="matrix(0.242311,0,0,-0.242035,-110.394286,917.932774)"/>
<path style="fill:none;stroke-width:30;stroke-linecap:round;stroke-linejoin:round;stroke:rgb(14.898682%,16.468811%,18.818665%);stroke-opacity:1;stroke-miterlimit:10;" d="M 1632.03497 2942.779493 C 1649.380934 2943.489617 1666.839743 2940.245645 1682.767078 2933.321943 " transform="matrix(0.242311,0,0,-0.242035,-110.394286,917.932774)"/>
<path style="fill:none;stroke-width:30;stroke-linecap:round;stroke-linejoin:round;stroke:rgb(14.898682%,16.468811%,18.818665%);stroke-opacity:1;stroke-miterlimit:10;" d="M 2301.789082 1642.043573 C 2344.718732 1614.381046 2397.224127 1601.953889 2448.004598 1607.473484 C 2498.785069 1612.976938 2547.421476 1636.378726 2583.403067 1672.627289 " transform="matrix(0.242311,0,0,-0.242035,-110.394286,917.932774)"/>
<path style="fill:none;stroke-width:30;stroke-linecap:round;stroke-linejoin:round;stroke:rgb(14.898682%,16.468811%,18.818665%);stroke-opacity:1;stroke-miterlimit:10;" d="M 2636.988555 1728.016899 C 2646.322489 1738.410521 2651.948643 1752.112671 2652.609595 1766.105326 " transform="matrix(0.242311,0,0,-0.242035,-110.394286,917.932774)"/>
<g clip-path="url(#clip2)" clip-rule="nonzero">
<path style="fill:none;stroke-width:40;stroke-linecap:round;stroke-linejoin:round;stroke:rgb(14.898682%,16.468811%,18.818665%);stroke-opacity:1;stroke-miterlimit:10;" d="M 2931.998911 2234.964179 C 2929.999934 2367.111654 2822.345335 2473.646275 2689.719641 2473.646275 C 2643.356264 2473.646275 2600.007475 2460.589691 2563.171482 2438.011001 C 2563.203724 2439.350552 2563.284328 2440.706241 2563.284328 2442.045792 C 2563.284328 2645.705902 2398.159132 2810.825689 2194.489141 2810.825689 C 2135.632157 2810.825689 2079.999329 2796.962147 2030.621366 2772.430618 C 1952.935306 2932.353594 1788.938565 3042.632501 1599.180811 3042.632501 C 1337.814532 3042.632501 1125.471558 2833.485075 1120.006612 2573.450865 C 981.754765 2546.53074 877.421047 2424.857582 877.421047 2278.717453 C 877.421047 2251.022647 881.257794 2224.183217 888.286456 2198.715617 C 861.364746 2212.74055 830.815859 2220.793993 798.396962 2220.793993 C 690.742363 2220.793993 603.432194 2133.481116 603.432194 2025.86517 C 603.432194 1918.168529 690.742363 1830.90407 798.396962 1830.90407 C 818.821996 1830.90407 838.521594 1834.115763 856.996013 1839.925862 C 865.894686 1711.264447 973.049541 1609.652271 1103.950311 1609.652271 C 1177.380484 1609.652271 1243.362855 1641.656233 1288.678381 1692.462321 C 1335.31581 1476.488029 1527.298233 1314.612214 1757.228982 1314.612214 C 1954.837558 1314.612214 2124.460453 1434.18728 2197.858385 1604.923496 C 2258.665984 1555.198731 2336.368165 1525.357417 2421.050646 1525.357417 C 2606.294581 1525.357417 2758.087888 1668.092183 2772.773922 1849.577082 C 2804.064365 1831.146157 2840.432855 1820.397474 2879.38067 1820.397474 C 2995.788855 1820.397474 3090.111565 1914.730887 3090.111565 2031.09426 C 3090.111565 2129.301072 3022.855652 2211.562391 2931.998911 2234.964179 Z M 2931.998911 2234.964179 " transform="matrix(0.242311,0,0,-0.242035,-110.394286,917.932774)"/>
</g>
<path style="fill:none;stroke-width:40;stroke-linecap:round;stroke-linejoin:round;stroke:rgb(14.898682%,16.468811%,18.818665%);stroke-opacity:1;stroke-miterlimit:10;" d="M 2278.365583 1263.677013 C 2292.310061 1231.68919 2331.096669 1216.760463 2365.901442 1219.262033 C 2400.706216 1221.731325 2432.85106 1237.773654 2464.609006 1252.315041 C 2496.33471 1266.888706 2530.188357 1280.477882 2564.993131 1277.540554 C 2615.080408 1273.360511 2656.526945 1236.062903 2705.630855 1225.249663 C 2807.820508 1202.670973 2887.811841 1301.297404 2988.163724 1271.569064 C 3028.239994 1259.690639 3084.146875 1226.218013 3124.223145 1214.30731 C 3176.760782 1198.716878 3238.277696 1220.988924 3268.665374 1266.695036 " transform="matrix(0.242311,0,0,-0.242035,-110.394286,917.932774)"/>
<path style="fill:none;stroke-width:40;stroke-linecap:round;stroke-linejoin:round;stroke:rgb(14.898682%,16.468811%,18.818665%);stroke-opacity:1;stroke-miterlimit:10;" d="M 2955.583619 1732.148525 C 2963.515045 1713.959687 2985.584399 1705.470487 3005.396843 1706.890734 C 3025.193166 1708.294841 3043.522498 1717.429608 3061.561656 1725.676721 C 3079.616935 1733.956112 3098.913514 1741.686771 3118.677595 1740.040576 C 3147.195263 1737.668119 3170.779971 1716.41284 3198.71729 1710.279958 C 3256.832719 1697.433184 3302.390056 1753.565196 3359.489874 1736.651352 C 3382.268543 1729.856764 3414.107092 1710.82869 3436.918002 1704.06638 C 3466.789816 1695.157561 3501.836401 1707.859083 3519.101762 1733.843137 " transform="matrix(0.242311,0,0,-0.242035,-110.394286,917.932774)"/>
<path style="fill:none;stroke-width:40;stroke-linecap:round;stroke-linejoin:round;stroke:rgb(14.898682%,16.468811%,18.818665%);stroke-opacity:1;stroke-miterlimit:10;" d="M 2659.718861 1502.504361 C 2673.67946 1470.516538 2712.466068 1455.587811 2747.270841 1458.057103 C 2782.107857 1460.558674 2814.252701 1476.617142 2845.978405 1491.14239 C 2877.687988 1505.667637 2911.606119 1519.305231 2946.36253 1516.367903 C 2996.449807 1512.155581 3037.928586 1474.890251 3087.000254 1464.028594 C 3189.173786 1441.449904 3269.18124 1540.124752 3369.533123 1510.364134 C 3409.609393 1498.485709 3465.500153 1465.045361 3505.592544 1453.134658 C 3558.162422 1437.511948 3619.695457 1459.816272 3650.034773 1505.473967 " transform="matrix(0.242311,0,0,-0.242035,-110.394286,917.932774)"/>
</g>
</svg>
