<?xml version="1.0" encoding="UTF-8"?>
<svg xmlns="http://www.w3.org/2000/svg" xmlns:xlink="http://www.w3.org/1999/xlink" width="810pt" height="809.999993pt" viewBox="0 0 810 809.999993" version="1.2">
<defs>
<clipPath id="clip1">
  <path d="M 102.121094 104.011719 L 396 104.011719 L 396 454 L 102.121094 454 Z M 102.121094 104.011719 "/>
</clipPath>
<clipPath id="clip2">
  <path d="M 513 488 L 708 488 L 708 706.261719 L 513 706.261719 Z M 513 488 "/>
</clipPath>
<clipPath id="clip3">
  <path d="M 337 652 L 514 652 L 514 706.261719 L 337 706.261719 Z M 337 652 "/>
</clipPath>
</defs>
<g id="surface1">
<path style=" stroke:none;fill-rule:nonzero;fill:rgb(94.119263%,97.24884%,86.669922%);fill-opacity:1;" d="M 157.390625 652.777344 L 652.636719 652.777344 L 652.636719 157.472656 L 157.390625 157.472656 Z M 157.390625 652.777344 "/>
<path style=" stroke:none;fill-rule:nonzero;fill:rgb(99.21875%,86.669922%,27.839661%);fill-opacity:1;" d="M 280.449219 330.636719 L 280.449219 399.269531 L 322.371094 399.269531 L 322.371094 449.085938 L 177.789062 449.085938 L 177.789062 399.269531 L 218.484375 399.269531 L 218.484375 158.015625 L 156.527344 158.015625 L 156.527344 216.324219 L 106.710938 216.324219 L 106.710938 108.179688 L 391.625 108.179688 L 391.625 216.324219 L 342.421875 216.324219 L 342.421875 158.015625 L 280.449219 158.015625 L 280.449219 270.59375 "/>
<g clip-path="url(#clip1)" clip-rule="nonzero">
<path style=" stroke:none;fill-rule:nonzero;fill:rgb(29.40979%,8.628845%,8.239746%);fill-opacity:1;" d="M 276.355469 330.636719 L 276.355469 399.269531 C 276.355469 400.347656 276.789062 401.402344 277.558594 402.164062 C 278.320312 402.925781 279.375 403.367188 280.449219 403.367188 L 318.273438 403.367188 L 318.273438 444.992188 L 181.882812 444.992188 L 181.882812 403.367188 L 218.484375 403.367188 C 219.5625 403.367188 220.617188 402.925781 221.378906 402.164062 C 222.140625 401.402344 222.582031 400.347656 222.582031 399.269531 L 222.582031 158.015625 C 222.582031 156.929688 222.148438 155.878906 221.378906 155.113281 C 220.617188 154.351562 219.5625 153.914062 218.484375 153.914062 L 156.527344 153.914062 C 155.449219 153.914062 154.398438 154.351562 153.628906 155.113281 C 152.867188 155.878906 152.433594 156.929688 152.433594 158.015625 L 152.433594 212.234375 L 110.804688 212.234375 L 110.804688 112.273438 L 387.53125 112.273438 L 387.53125 212.234375 L 346.511719 212.234375 L 346.511719 158.015625 C 346.511719 156.929688 346.074219 155.878906 345.3125 155.113281 C 344.550781 154.351562 343.5 153.914062 342.421875 153.914062 L 280.449219 153.914062 C 279.375 153.914062 278.320312 154.351562 277.558594 155.113281 C 276.789062 155.878906 276.355469 156.929688 276.355469 158.015625 L 276.355469 270.59375 C 276.355469 272.855469 278.1875 274.691406 280.449219 274.691406 C 282.710938 274.691406 284.546875 272.855469 284.546875 270.59375 L 284.546875 162.101562 L 338.328125 162.101562 L 338.328125 216.324219 C 338.328125 217.402344 338.761719 218.460938 339.523438 219.222656 C 340.285156 219.984375 341.34375 220.421875 342.421875 220.421875 L 391.625 220.421875 C 392.703125 220.421875 393.753906 219.984375 394.515625 219.222656 C 395.28125 218.460938 395.714844 217.402344 395.714844 216.324219 L 395.714844 108.179688 C 395.714844 107.101562 395.28125 106.046875 394.515625 105.285156 C 393.753906 104.523438 392.703125 104.085938 391.625 104.085938 L 106.710938 104.085938 C 105.632812 104.085938 104.582031 104.523438 103.820312 105.285156 C 103.054688 106.046875 102.617188 107.101562 102.617188 108.179688 L 102.617188 216.324219 C 102.617188 217.402344 103.054688 218.460938 103.820312 219.222656 C 104.582031 219.984375 105.632812 220.421875 106.710938 220.421875 L 156.527344 220.421875 C 157.605469 220.421875 158.660156 219.984375 159.421875 219.222656 C 160.183594 218.460938 160.621094 217.402344 160.621094 216.324219 L 160.621094 162.101562 L 214.390625 162.101562 L 214.390625 395.175781 L 177.789062 395.175781 C 176.710938 395.175781 175.652344 395.609375 174.890625 396.371094 C 174.128906 397.132812 173.691406 398.195312 173.691406 399.269531 L 173.691406 449.085938 C 173.691406 450.164062 174.128906 451.226562 174.890625 451.988281 C 175.65625 452.75 176.710938 453.183594 177.789062 453.183594 L 322.371094 453.183594 C 323.445312 453.183594 324.5 452.75 325.261719 451.988281 C 326.03125 451.226562 326.464844 450.164062 326.464844 449.085938 L 326.464844 399.269531 C 326.464844 398.195312 326.03125 397.132812 325.261719 396.371094 C 324.5 395.609375 323.445312 395.175781 322.371094 395.175781 L 284.546875 395.175781 L 284.546875 330.636719 C 284.546875 328.375 282.710938 326.542969 280.449219 326.542969 C 278.1875 326.542969 276.355469 328.375 276.355469 330.636719 "/>
</g>
<path style=" stroke:none;fill-rule:nonzero;fill:rgb(74.119568%,73.728943%,73.728943%);fill-opacity:1;" d="M 405.75 337.726562 L 370.15625 268.785156 L 280.398438 270.105469 L 306.359375 356.054688 L 382.847656 369.066406 L 405.75 337.726562 "/>
<path style=" stroke:none;fill-rule:nonzero;fill:rgb(29.40979%,8.628845%,8.239746%);fill-opacity:1;" d="M 405.75 337.726562 L 409.386719 335.851562 L 373.800781 266.902344 C 373.085938 265.523438 371.652344 264.664062 370.097656 264.691406 L 280.335938 266.015625 C 279.050781 266.035156 277.851562 266.652344 277.09375 267.691406 C 276.332031 268.730469 276.105469 270.066406 276.476562 271.292969 L 302.4375 357.238281 C 302.890625 358.726562 304.140625 359.835938 305.675781 360.097656 L 382.160156 373.101562 C 383.691406 373.367188 385.234375 372.742188 386.148438 371.484375 L 409.058594 340.144531 C 409.972656 338.886719 410.097656 337.234375 409.386719 335.851562 L 405.75 337.726562 L 402.445312 335.3125 L 381.035156 364.609375 L 309.542969 352.449219 L 285.886719 274.125 L 367.6875 272.917969 L 402.113281 339.609375 L 405.75 337.726562 L 402.445312 335.3125 L 405.75 337.726562 "/>
<path style=" stroke:none;fill-rule:nonzero;fill:rgb(29.40979%,8.628845%,8.239746%);fill-opacity:1;" d="M 277.980469 273.417969 L 322.5 305.96875 C 324.328125 307.304688 326.886719 306.90625 328.21875 305.078125 C 329.554688 303.257812 329.160156 300.691406 327.332031 299.355469 L 282.8125 266.804688 C 280.988281 265.46875 278.425781 265.867188 277.09375 267.691406 C 275.761719 269.515625 276.152344 272.078125 277.980469 273.417969 "/>
<path style=" stroke:none;fill-rule:nonzero;fill:rgb(29.40979%,8.628845%,8.239746%);fill-opacity:1;" d="M 340.367188 297.40625 C 346.324219 301.761719 347.617188 310.125 343.265625 316.078125 C 338.910156 322.042969 330.546875 323.339844 324.589844 318.984375 C 318.636719 314.625 317.339844 306.269531 321.691406 300.304688 C 326.046875 294.351562 334.414062 293.054688 340.367188 297.40625 "/>
<path style=" stroke:none;fill-rule:nonzero;fill:rgb(29.019165%,76.469421%,83.918762%);fill-opacity:1;" d="M 421.175781 333.847656 L 383.808594 384.96875 L 367.402344 372.972656 L 404.773438 321.847656 L 421.175781 333.847656 "/>
<path style=" stroke:none;fill-rule:nonzero;fill:rgb(29.40979%,8.628845%,8.239746%);fill-opacity:1;" d="M 421.175781 333.847656 L 417.871094 331.429688 L 382.917969 379.246094 L 373.125 372.085938 L 405.660156 327.566406 L 418.757812 337.148438 L 421.175781 333.847656 L 417.871094 331.429688 L 421.175781 333.847656 L 423.59375 330.535156 L 407.1875 318.542969 C 406.320312 317.90625 405.207031 317.636719 404.140625 317.804688 C 403.078125 317.964844 402.105469 318.558594 401.46875 319.429688 L 364.097656 370.554688 C 362.765625 372.382812 363.164062 374.941406 364.984375 376.28125 L 381.394531 388.277344 C 382.261719 388.914062 383.371094 389.179688 384.433594 389.015625 C 385.5 388.847656 386.476562 388.257812 387.113281 387.390625 L 424.484375 336.261719 C 425.816406 334.4375 425.417969 331.875 423.59375 330.535156 L 421.175781 333.847656 "/>
<path style=" stroke:none;fill-rule:nonzero;fill:rgb(98.429871%,78.819275%,18.818665%);fill-opacity:1;" d="M 589.671875 697.488281 C 563.144531 697.488281 538.855469 688.023438 519.945312 672.285156 C 520.035156 672.203125 520.125 672.113281 520.207031 672.023438 C 526.046875 666.183594 531.285156 659.738281 535.800781 652.777344 L 652.636719 652.777344 L 652.636719 499.339844 C 657.683594 502.917969 662.421875 506.917969 666.789062 511.285156 C 686.527344 531.035156 698.722656 558.28125 698.726562 588.414062 C 698.722656 618.546875 686.527344 645.785156 666.789062 665.539062 C 647.042969 685.285156 619.804688 697.488281 589.671875 697.488281 "/>
<path style=" stroke:none;fill-rule:nonzero;fill:rgb(93.328857%,85.099792%,25.489807%);fill-opacity:1;" d="M 652.636719 652.777344 L 535.800781 652.777344 C 547.84375 634.253906 554.839844 612.140625 554.835938 588.414062 C 554.835938 580.382812 554.039062 572.53125 552.507812 564.949219 C 569.144531 558.996094 584.058594 549.425781 596.289062 537.183594 C 610.382812 523.097656 620.9375 505.445312 626.5 485.707031 C 635.871094 489.066406 644.648438 493.679688 652.636719 499.339844 L 652.636719 652.777344 "/>
<g clip-path="url(#clip2)" clip-rule="nonzero">
<path style=" stroke:none;fill-rule:nonzero;fill:rgb(29.40979%,8.239746%,7.449341%);fill-opacity:1;" d="M 589.683594 706.660156 C 589.679688 706.660156 589.679688 706.660156 589.671875 706.660156 C 560.496094 706.660156 533.753906 696.078125 513.136719 678.546875 C 515.488281 676.546875 517.761719 674.464844 519.945312 672.285156 C 538.855469 688.023438 563.144531 697.488281 589.671875 697.488281 C 619.804688 697.488281 647.042969 685.285156 666.789062 665.539062 C 686.527344 645.785156 698.722656 618.546875 698.726562 588.414062 C 698.722656 558.28125 686.527344 531.035156 666.789062 511.285156 C 662.421875 506.917969 657.683594 502.917969 652.636719 499.339844 L 652.636719 488.304688 C 660.125 493.023438 667.046875 498.566406 673.277344 504.796875 C 694.660156 526.183594 707.898438 555.773438 707.898438 588.414062 C 707.898438 621.050781 694.660156 650.640625 673.277344 672.023438 C 651.898438 693.417969 622.316406 706.660156 589.683594 706.660156 "/>
</g>
<path style=" stroke:none;fill-rule:nonzero;fill:rgb(28.239441%,8.628845%,8.239746%);fill-opacity:1;" d="M 652.636719 499.339844 C 644.648438 493.679688 635.871094 489.066406 626.5 485.707031 C 627.328125 482.761719 628.050781 479.765625 628.648438 476.738281 C 637.125 479.695312 645.167969 483.59375 652.636719 488.304688 L 652.636719 499.339844 "/>
<path style=" stroke:none;fill-rule:nonzero;fill:rgb(93.728638%,18.818665%,45.489502%);fill-opacity:1;" d="M 436.601562 697.488281 C 406.476562 697.488281 379.238281 685.285156 359.492188 665.539062 C 355.527344 661.574219 351.867188 657.308594 348.550781 652.777344 L 490.472656 652.777344 C 494.996094 659.738281 500.226562 666.183594 506.074219 672.023438 C 506.15625 672.113281 506.246094 672.203125 506.328125 672.285156 C 487.417969 688.023438 463.136719 697.488281 436.601562 697.488281 "/>
<path style=" stroke:none;fill-rule:nonzero;fill:rgb(89.408875%,19.60907%,56.469727%);fill-opacity:1;" d="M 490.472656 652.777344 L 348.550781 652.777344 C 335.339844 634.734375 327.546875 612.496094 327.546875 588.414062 C 327.546875 558.28125 339.75 531.035156 359.492188 511.285156 C 370.5625 500.207031 383.988281 491.511719 398.964844 486.003906 C 404.539062 505.621094 415.0625 523.167969 429.078125 537.183594 C 441.519531 549.632812 456.730469 559.316406 473.710938 565.246094 C 472.21875 572.738281 471.4375 580.492188 471.4375 588.414062 C 471.4375 612.140625 478.4375 634.253906 490.472656 652.777344 "/>
<path style=" stroke:none;fill-rule:nonzero;fill:rgb(93.728638%,21.569824%,21.179199%);fill-opacity:1;" d="M 513.136719 666.117188 C 512.941406 665.921875 512.75 665.730469 512.554688 665.539062 C 508.589844 661.574219 504.9375 657.308594 501.621094 652.777344 L 524.660156 652.777344 C 521.34375 657.308594 517.683594 661.574219 513.71875 665.539062 C 513.53125 665.730469 513.332031 665.921875 513.136719 666.117188 "/>
<path style=" stroke:none;fill-rule:nonzero;fill:rgb(89.408875%,22.749329%,24.708557%);fill-opacity:1;" d="M 524.660156 652.777344 L 501.621094 652.777344 C 488.40625 634.734375 480.617188 612.496094 480.617188 588.414062 C 480.617188 581.414062 481.269531 574.574219 482.53125 567.941406 C 492.15625 570.472656 502.269531 571.824219 512.683594 571.824219 C 512.683594 571.824219 512.691406 571.824219 512.695312 571.824219 C 523.421875 571.824219 533.820312 570.394531 543.699219 567.710938 C 544.992188 574.414062 545.664062 581.335938 545.664062 588.414062 C 545.664062 612.496094 537.875 634.734375 524.660156 652.777344 "/>
<path style=" stroke:none;fill-rule:nonzero;fill:rgb(29.40979%,5.879211%,7.449341%);fill-opacity:1;" d="M 506.328125 672.285156 C 506.246094 672.203125 506.15625 672.113281 506.074219 672.023438 C 500.226562 666.183594 494.996094 659.738281 490.472656 652.777344 L 501.621094 652.777344 C 504.9375 657.308594 508.589844 661.574219 512.554688 665.539062 C 512.75 665.730469 512.941406 665.921875 513.136719 666.117188 C 510.957031 668.265625 508.683594 670.324219 506.328125 672.285156 "/>
<path style=" stroke:none;fill-rule:nonzero;fill:rgb(28.239441%,6.269836%,7.839966%);fill-opacity:1;" d="M 501.621094 652.777344 L 490.472656 652.777344 C 478.4375 634.253906 471.4375 612.140625 471.4375 588.414062 C 471.4375 580.492188 472.21875 572.738281 473.710938 565.246094 C 476.597656 566.257812 479.546875 567.15625 482.53125 567.941406 C 481.269531 574.574219 480.617188 581.414062 480.617188 588.414062 C 480.617188 612.496094 488.40625 634.734375 501.621094 652.777344 "/>
<g clip-path="url(#clip3)" clip-rule="nonzero">
<path style=" stroke:none;fill-rule:nonzero;fill:rgb(29.40979%,8.239746%,7.449341%);fill-opacity:1;" d="M 436.609375 706.660156 C 436.609375 706.660156 436.601562 706.660156 436.601562 706.660156 C 403.96875 706.660156 374.382812 693.417969 353.003906 672.023438 C 347.164062 666.183594 341.925781 659.738281 337.410156 652.777344 L 348.550781 652.777344 C 351.867188 657.308594 355.527344 661.574219 359.492188 665.539062 C 379.238281 685.285156 406.476562 697.488281 436.601562 697.488281 C 463.136719 697.488281 487.417969 688.023438 506.328125 672.285156 C 508.519531 674.464844 510.785156 676.546875 513.136719 678.546875 C 492.519531 696.078125 465.785156 706.660156 436.609375 706.660156 "/>
</g>
<path style=" stroke:none;fill-rule:nonzero;fill:rgb(28.239441%,8.628845%,8.239746%);fill-opacity:1;" d="M 348.550781 652.777344 L 337.410156 652.777344 C 325.371094 634.253906 318.371094 612.140625 318.375 588.414062 C 318.371094 555.773438 331.613281 526.183594 353.003906 504.796875 C 365.234375 492.558594 380.148438 482.988281 396.785156 477.035156 C 397.398438 480.070312 398.125 483.058594 398.964844 486.003906 C 383.988281 491.511719 370.5625 500.207031 359.492188 511.285156 C 339.75 531.035156 327.546875 558.28125 327.546875 588.414062 C 327.546875 612.496094 335.339844 634.734375 348.550781 652.777344 "/>
<path style=" stroke:none;fill-rule:nonzero;fill:rgb(29.40979%,8.239746%,6.669617%);fill-opacity:1;" d="M 519.945312 672.285156 C 517.59375 670.324219 515.320312 668.265625 513.136719 666.117188 C 513.332031 665.921875 513.53125 665.730469 513.71875 665.539062 C 517.683594 661.574219 521.34375 657.308594 524.660156 652.777344 L 535.800781 652.777344 C 531.285156 659.738281 526.046875 666.183594 520.207031 672.023438 C 520.125 672.113281 520.035156 672.203125 519.945312 672.285156 "/>
<path style=" stroke:none;fill-rule:nonzero;fill:rgb(28.239441%,8.239746%,7.058716%);fill-opacity:1;" d="M 535.800781 652.777344 L 524.660156 652.777344 C 537.875 634.734375 545.664062 612.496094 545.664062 588.414062 C 545.664062 581.335938 544.992188 574.414062 543.699219 567.710938 C 546.6875 566.902344 549.621094 565.976562 552.507812 564.949219 C 554.039062 572.53125 554.835938 580.382812 554.835938 588.414062 C 554.839844 612.140625 547.84375 634.253906 535.800781 652.777344 "/>
<path style=" stroke:none;fill-rule:nonzero;fill:rgb(10.978699%,2.749634%,2.749634%);fill-opacity:1;" d="M 513.136719 678.546875 C 510.785156 676.546875 508.519531 674.464844 506.328125 672.285156 C 508.683594 670.324219 510.957031 668.265625 513.136719 666.117188 C 515.320312 668.265625 517.59375 670.324219 519.945312 672.285156 C 517.761719 674.464844 515.488281 676.546875 513.136719 678.546875 "/>
<path style=" stroke:none;fill-rule:nonzero;fill:rgb(27.449036%,75.689697%,75.689697%);fill-opacity:1;" d="M 513.136719 498.273438 C 492.519531 480.742188 465.777344 470.152344 436.601562 470.160156 C 436.601562 470.160156 436.597656 470.160156 436.589844 470.160156 C 425.871094 470.160156 415.472656 471.589844 405.585938 474.265625 C 404.300781 467.570312 403.628906 460.648438 403.628906 453.570312 C 403.628906 423.4375 415.824219 396.199219 435.566406 376.449219 C 455.316406 356.703125 482.550781 344.5 512.683594 344.5 C 542.8125 344.5 570.054688 356.703125 589.804688 376.449219 C 609.546875 396.199219 621.746094 423.4375 621.746094 453.570312 C 621.746094 460.570312 621.085938 467.410156 619.828125 474.039062 C 610.199219 471.503906 600.09375 470.152344 589.671875 470.160156 C 589.671875 470.160156 589.664062 470.160156 589.660156 470.160156 C 560.488281 470.160156 533.753906 480.742188 513.136719 498.273438 "/>
<path style=" stroke:none;fill-rule:nonzero;fill:rgb(29.019165%,67.83905%,36.468506%);fill-opacity:1;" d="M 550.332031 555.976562 C 544.746094 536.359375 534.230469 518.816406 520.207031 504.796875 C 520.117188 504.707031 520.035156 504.625 519.945312 504.535156 C 538.855469 488.796875 563.144531 479.332031 589.671875 479.332031 C 599.378906 479.332031 608.789062 480.601562 617.742188 482.976562 C 612.628906 501.273438 602.867188 517.625 589.804688 530.695312 C 578.726562 541.769531 565.304688 550.472656 550.332031 555.976562 "/>
<path style=" stroke:none;fill-rule:nonzero;fill:rgb(13.328552%,9.408569%,9.408569%);fill-opacity:1;" d="M 519.945312 504.535156 C 517.761719 502.363281 515.488281 500.273438 513.136719 498.273438 C 533.753906 480.742188 560.488281 470.160156 589.660156 470.160156 C 589.664062 470.160156 589.671875 470.160156 589.671875 470.160156 C 600.09375 470.152344 610.199219 471.503906 619.828125 474.039062 C 619.257812 477.066406 618.554688 480.046875 617.742188 482.976562 C 608.789062 480.601562 599.378906 479.332031 589.671875 479.332031 C 563.144531 479.332031 538.855469 488.796875 519.945312 504.535156 "/>
<path style=" stroke:none;fill-rule:nonzero;fill:rgb(37.249756%,25.878906%,51.759338%);fill-opacity:1;" d="M 475.859375 556.273438 C 460.558594 550.785156 446.847656 541.972656 435.566406 530.695312 C 422.554688 517.679688 412.824219 501.410156 407.699219 483.203125 C 416.902344 480.679688 426.59375 479.332031 436.601562 479.332031 C 463.136719 479.332031 487.417969 488.792969 506.328125 504.535156 C 506.238281 504.625 506.15625 504.707031 506.074219 504.796875 C 491.980469 518.886719 481.421875 536.535156 475.859375 556.273438 "/>
<path style=" stroke:none;fill-rule:nonzero;fill:rgb(38.42926%,26.669312%,29.019165%);fill-opacity:1;" d="M 512.683594 562.652344 C 502.976562 562.652344 493.574219 561.382812 484.621094 559.007812 C 489.730469 540.710938 499.488281 524.359375 512.554688 511.285156 C 512.75 511.089844 512.941406 510.898438 513.136719 510.703125 C 513.332031 510.898438 513.53125 511.089844 513.71875 511.285156 C 526.730469 524.304688 536.46875 540.574219 541.59375 558.777344 C 532.386719 561.300781 522.695312 562.652344 512.683594 562.652344 "/>
<path style=" stroke:none;fill-rule:nonzero;fill:rgb(13.729858%,7.839966%,9.01947%);fill-opacity:1;" d="M 484.621094 559.007812 C 481.652344 558.214844 478.722656 557.304688 475.859375 556.273438 C 481.421875 536.535156 491.980469 518.886719 506.074219 504.796875 C 506.15625 504.707031 506.238281 504.625 506.328125 504.535156 C 508.683594 506.496094 510.957031 508.554688 513.136719 510.703125 C 512.941406 510.898438 512.75 511.089844 512.554688 511.285156 C 499.488281 524.359375 489.730469 540.710938 484.621094 559.007812 "/>
<path style=" stroke:none;fill-rule:nonzero;fill:rgb(13.328552%,9.408569%,9.408569%);fill-opacity:1;" d="M 506.328125 504.535156 C 487.417969 488.792969 463.136719 479.332031 436.601562 479.332031 C 426.59375 479.332031 416.902344 480.679688 407.699219 483.203125 C 406.875 480.273438 406.171875 477.289062 405.585938 474.265625 C 415.472656 471.589844 425.871094 470.160156 436.589844 470.160156 C 436.597656 470.160156 436.601562 470.160156 436.601562 470.160156 C 465.777344 470.152344 492.519531 480.742188 513.136719 498.273438 C 510.785156 500.273438 508.519531 502.363281 506.328125 504.535156 "/>
<path style=" stroke:none;fill-rule:nonzero;fill:rgb(13.328552%,9.408569%,8.628845%);fill-opacity:1;" d="M 541.59375 558.777344 C 536.46875 540.574219 526.730469 524.304688 513.71875 511.285156 C 513.53125 511.089844 513.332031 510.898438 513.136719 510.703125 C 515.320312 508.554688 517.59375 506.496094 519.945312 504.535156 C 520.035156 504.625 520.117188 504.707031 520.207031 504.796875 C 534.230469 518.816406 544.746094 536.359375 550.332031 555.976562 C 547.472656 557.03125 544.558594 557.964844 541.59375 558.777344 "/>
<path style=" stroke:none;fill-rule:nonzero;fill:rgb(5.099487%,2.749634%,3.138733%);fill-opacity:1;" d="M 513.136719 510.703125 C 510.957031 508.554688 508.683594 506.496094 506.328125 504.535156 C 508.519531 502.363281 510.785156 500.273438 513.136719 498.273438 C 515.488281 500.273438 517.761719 502.363281 519.945312 504.535156 C 517.59375 506.496094 515.320312 508.554688 513.136719 510.703125 "/>
<path style=" stroke:none;fill-rule:nonzero;fill:rgb(28.239441%,8.628845%,8.239746%);fill-opacity:1;" d="M 396.785156 477.035156 C 395.253906 469.453125 394.457031 461.601562 394.457031 453.570312 C 394.457031 420.933594 407.695312 391.34375 429.078125 369.960938 C 450.457031 348.566406 480.039062 335.328125 512.679688 335.328125 C 512.679688 335.328125 512.683594 335.328125 512.683594 335.328125 C 545.320312 335.328125 574.90625 348.566406 596.289062 369.960938 C 617.679688 391.34375 630.925781 420.933594 630.917969 453.570312 C 630.917969 461.5 630.136719 469.242188 628.648438 476.738281 C 625.757812 475.726562 622.816406 474.828125 619.828125 474.039062 C 621.085938 467.410156 621.746094 460.570312 621.746094 453.570312 C 621.746094 423.4375 609.546875 396.199219 589.804688 376.449219 C 570.054688 356.703125 542.8125 344.5 512.683594 344.5 C 482.550781 344.5 455.316406 356.703125 435.566406 376.449219 C 415.824219 396.199219 403.628906 423.4375 403.628906 453.570312 C 403.628906 460.648438 404.300781 467.570312 405.585938 474.265625 C 402.605469 475.078125 399.671875 476 396.785156 477.035156 "/>
<path style=" stroke:none;fill-rule:nonzero;fill:rgb(28.239441%,8.239746%,7.058716%);fill-opacity:1;" d="M 552.507812 564.949219 C 551.902344 561.914062 551.167969 558.925781 550.332031 555.976562 C 565.304688 550.472656 578.726562 541.769531 589.804688 530.695312 C 602.867188 517.625 612.628906 501.273438 617.742188 482.976562 C 620.710938 483.765625 623.632812 484.679688 626.5 485.707031 C 620.9375 505.445312 610.382812 523.097656 596.289062 537.183594 C 584.058594 549.425781 569.144531 558.996094 552.507812 564.949219 "/>
<path style=" stroke:none;fill-rule:nonzero;fill:rgb(10.5896%,2.749634%,2.749634%);fill-opacity:1;" d="M 626.5 485.707031 C 623.632812 484.679688 620.710938 483.765625 617.742188 482.976562 C 618.554688 480.046875 619.257812 477.066406 619.828125 474.039062 C 622.816406 474.828125 625.757812 475.726562 628.648438 476.738281 C 628.050781 479.765625 627.328125 482.761719 626.5 485.707031 "/>
<path style=" stroke:none;fill-rule:nonzero;fill:rgb(28.239441%,6.269836%,7.839966%);fill-opacity:1;" d="M 473.710938 565.246094 C 456.730469 559.316406 441.519531 549.632812 429.078125 537.183594 C 415.0625 523.167969 404.539062 505.621094 398.964844 486.003906 C 401.820312 484.953125 404.738281 484.015625 407.699219 483.203125 C 412.824219 501.410156 422.554688 517.679688 435.566406 530.695312 C 446.847656 541.972656 460.558594 550.785156 475.859375 556.273438 C 475.035156 559.222656 474.3125 562.210938 473.710938 565.246094 "/>
<path style=" stroke:none;fill-rule:nonzero;fill:rgb(28.239441%,6.269836%,7.058716%);fill-opacity:1;" d="M 512.695312 571.824219 C 512.691406 571.824219 512.683594 571.824219 512.683594 571.824219 C 502.269531 571.824219 492.15625 570.472656 482.53125 567.941406 C 483.105469 564.917969 483.808594 561.9375 484.621094 559.007812 C 493.574219 561.382812 502.976562 562.652344 512.683594 562.652344 C 522.695312 562.652344 532.386719 561.300781 541.59375 558.777344 C 542.414062 561.703125 543.121094 564.6875 543.699219 567.710938 C 533.820312 570.394531 523.421875 571.824219 512.695312 571.824219 "/>
<path style=" stroke:none;fill-rule:nonzero;fill:rgb(10.5896%,2.349854%,2.749634%);fill-opacity:1;" d="M 482.53125 567.941406 C 479.546875 567.15625 476.597656 566.257812 473.710938 565.246094 C 474.3125 562.210938 475.035156 559.222656 475.859375 556.273438 C 478.722656 557.304688 481.652344 558.214844 484.621094 559.007812 C 483.808594 561.9375 483.105469 564.917969 482.53125 567.941406 "/>
<path style=" stroke:none;fill-rule:nonzero;fill:rgb(10.5896%,2.749634%,2.749634%);fill-opacity:1;" d="M 543.699219 567.710938 C 543.121094 564.6875 542.414062 561.703125 541.59375 558.777344 C 544.558594 557.964844 547.472656 557.03125 550.332031 555.976562 C 551.167969 558.925781 551.902344 561.914062 552.507812 564.949219 C 549.621094 565.976562 546.6875 566.902344 543.699219 567.710938 "/>
<path style=" stroke:none;fill-rule:nonzero;fill:rgb(10.5896%,2.749634%,2.749634%);fill-opacity:1;" d="M 398.964844 486.003906 C 398.125 483.058594 397.398438 480.070312 396.785156 477.035156 C 399.671875 476 402.605469 475.078125 405.585938 474.265625 C 406.171875 477.289062 406.875 480.273438 407.699219 483.203125 C 404.738281 484.015625 401.820312 484.953125 398.964844 486.003906 "/>
<path style=" stroke:none;fill-rule:nonzero;fill:rgb(29.40979%,8.628845%,8.239746%);fill-opacity:1;" d="M 193.007812 466.546875 L 193.007812 466.652344 C 193.007812 467.613281 193.070312 474.828125 195.078125 485.640625 C 195.535156 488.128906 197.933594 489.78125 200.421875 489.316406 C 202.910156 488.855469 204.558594 486.457031 204.09375 483.96875 C 202.21875 473.832031 202.179688 467.164062 202.179688 466.652344 L 202.179688 466.625 L 201.421875 466.617188 L 202.179688 466.625 L 201.421875 466.617188 L 202.179688 466.625 C 202.195312 464.09375 200.160156 462.023438 197.632812 462 C 195.09375 461.976562 193.023438 464.015625 193.007812 466.546875 Z M 199.683594 503.941406 C 201.453125 509.488281 203.691406 515.40625 206.523438 521.519531 C 207.589844 523.816406 210.316406 524.816406 212.613281 523.75 C 214.910156 522.683594 215.910156 519.957031 214.84375 517.660156 C 212.183594 511.921875 210.082031 506.363281 208.421875 501.15625 C 207.652344 498.738281 205.070312 497.410156 202.65625 498.179688 C 200.242188 498.945312 198.910156 501.53125 199.683594 503.941406 Z M 215.535156 538.089844 C 218.753906 543.191406 222.425781 548.3125 226.628906 553.359375 C 228.246094 555.304688 231.140625 555.566406 233.085938 553.949219 C 235.03125 552.328125 235.300781 549.4375 233.679688 547.488281 C 229.746094 542.761719 226.308594 537.972656 223.296875 533.199219 C 221.945312 531.054688 219.109375 530.410156 216.96875 531.761719 C 214.824219 533.121094 214.183594 535.949219 215.535156 538.089844 Z M 239.617188 567.039062 C 244.050781 571.140625 248.90625 575.121094 254.222656 578.925781 C 256.28125 580.402344 259.144531 579.925781 260.621094 577.863281 C 262.09375 575.804688 261.621094 572.941406 259.558594 571.464844 C 254.558594 567.890625 250 564.144531 245.839844 560.300781 C 243.984375 558.578125 241.078125 558.691406 239.367188 560.554688 C 237.644531 562.414062 237.753906 565.316406 239.617188 567.039062 Z M 270.105469 588.949219 C 275.367188 591.859375 280.972656 594.605469 286.960938 597.144531 C 289.289062 598.132812 291.984375 597.042969 292.972656 594.710938 C 293.960938 592.378906 292.871094 589.6875 290.546875 588.699219 C 284.847656 586.28125 279.527344 583.679688 274.550781 580.925781 C 272.339844 579.699219 269.546875 580.496094 268.320312 582.714844 C 267.089844 584.929688 267.890625 587.722656 270.105469 588.949219 "/>
</g>
</svg>
