<svg width="810" height="400" viewBox="0 0 810 400" fill="none" xmlns="http://www.w3.org/2000/svg">
<g clip-path="url(#clip0_3_716)">
<path d="M218.035 212.184L267.723 175.777L285.012 182.77L298.508 193.988L326.496 175.777L341.887 170.188L354.59 156.176L368.477 170.188L379.676 189.785L395.062 174.379L411.855 170.188L428.645 184.195L444.047 168.773L462.234 156.176L483.227 122.566L500.023 96.7578L526.617 60.3359L553.195 27.3281L582.582 37.1211L607.781 60.3359L620.383 74.375L639.094 97.7383L660.953 115.559L669.344 150.75L680.547 188.398L708.535 195.383L728.125 247.504L747.719 267.801V296.223L768.703 335.875V363.457L803.695 372.207L809.289 390.785V400.227H301.305L218.035 212.184Z" fill="#224C75"/>
<path d="M388.809 380.785L332.148 321.094L275.48 217.367L306.051 244.234L317.262 257.973H345.566L355.262 284.535L374.648 312.883L388.809 324.391L384.352 351.688L388.809 380.785Z" fill="#183756"/>
<path d="M312.766 208.406L317.262 196.066L341.094 185.285L350.789 169.605L348.855 162.5L341.887 170.188L326.496 175.777L298.508 193.988L285.012 182.77L267.723 175.777L254.789 185.266V191.465L270.977 198.719L285.926 196.066L296.363 204.672L309.031 221.102L312.766 208.406Z" fill="#A4D8EA"/>
<path d="M0.703125 400.227L54.3789 253.598L75.6328 243.531L100.238 217.77L113.668 227.859L136.031 204.344L171.809 156.215L207.602 106.969L226.625 96.9023L243.391 137.184L263.531 169.645L272.469 200.988L288.129 217.77L298.195 242.41L309.375 263.664L346.289 284.945L386.555 366.641L406.68 400.227H0.703125Z" fill="#447EC3"/>
<path d="M4.0625 391.035L39.0977 342.023L51.3984 307.328L61.4805 298.367L67.0703 306.207L78.2422 288.301L83.8438 267.027L97.2578 261.43V279.34L107.508 268.148L124.098 248.562L131.922 261.43L143.109 231.215L169.957 203.238L185.609 173L203.695 147.258V161.812L222.523 128.238V112.574L229.688 104.273L226.625 96.9023L207.602 106.969L171.809 156.215L136.031 204.344L113.668 227.859L100.238 217.77L75.6328 243.531L54.3789 253.598L4.0625 391.035Z" fill="#224C75"/>
<path d="M141.441 301.723L131.922 326.922L116.871 334.188V322.984L86.6328 351.539L77.6797 371.684L65.9453 376.723L55.8789 381.766L50.8398 376.723L4.0625 400.227H40.1133L45.8203 391.035L54.3789 388.289L81.9766 380.465L86.4414 364.027L92.0352 351.355L105.09 343.516V346.879L116.871 343.516L111.426 349.855L109.934 360.293L97.6367 366.641L92.7852 379.707L86.4414 386.062L84.5859 393.879L82.1094 400.227H104.281L103.977 395.195L107.508 380.07L111.805 366.641L119.629 357.129L124.652 344.82L138.637 339.785L145.344 322.422L147.59 305.094L168.836 263.125L141.441 301.723Z" fill="#224C75"/>
<path d="M242.223 134.379L247.121 188.68L242.223 202.844L232.965 223.004L222.523 235.691L218.035 248.562L232.59 231.973L247.121 215.535L253.094 196.133L259.051 179.711L253.691 153.801L242.223 134.379Z" fill="#224C75"/>
<path d="M356.727 385.668L343.297 375.973L336.594 362.551L328.387 352.84L319.449 342.766L309.012 324.484L309.746 308.82L288.879 299.867L289.629 284.945L270.977 275.98L285.145 317.023L297.824 325.977L303.789 342.406L314.969 352.84L324.664 369.262V387.168L337.34 400.227H363.535L356.727 385.668Z" fill="#224C75"/>
<path d="M459.645 267.371L465.617 271.09H478.191L459.645 267.371Z" fill="#A4D8EA"/>
<path d="M423.488 213.781L443.793 227.812L474.934 243.969L507.367 235.645L544.273 248.562L531.965 224.449L544.273 213.781L550.98 205.438L567.758 213.781L576.707 203.195L568.879 202.066L556.574 191.465L537.559 185.285L523.02 196.477L500.66 185.285L487.234 191.465H478.191L469.34 174.098L478.191 161.773L470.09 143.594L462.234 156.176L444.047 168.773L428.645 184.195L411.855 170.188L395.062 174.379L379.676 189.785L388.809 205.438L423.488 213.781Z" fill="#A4D8EA"/>
<path d="M432.805 229.305L452.941 243.969L459.645 259.16L446.227 248.562L432.805 229.305Z" fill="#A4D8EA"/>
<path d="M417.148 224.094L427.586 234.539V248.562L419.379 243.969L417.148 224.094Z" fill="#A4D8EA"/>
<path d="M432.805 248.562V259.16L443.793 267.371H455.914L450.691 263.125L432.805 248.562Z" fill="#A4D8EA"/>
<path d="M463.379 244.234L466.359 257.973L478.191 259.16L493.199 263.125L463.379 244.234Z" fill="#A4D8EA"/>
<path d="M493.199 118.117L513.664 87.5312H519.297L533.457 72.6016L555.832 68.8828L564.77 53.9492V38.2852L576.707 56.9414L570.75 71.1172L568.5 78.1992H548.375L534.949 96.9023H520.039L513.664 106.18L508.859 121.109L488.727 130.66L493.199 118.117Z" fill="#A4D8EA"/>
<path d="M600.562 96.9023L608.02 130.66L637.848 162.145L643.062 183.039L656.48 203.938L669.902 213.781L687.051 221.102L668.418 196.066L654.992 172.598V154.684L640.078 135.285L629.648 130.66L620.703 109.914L600.562 96.9023Z" fill="#A4D8EA"/>
<path d="M517.797 115.141L513.664 125.59L501.402 134.379H513.664L521.535 124.758L517.797 115.141Z" fill="#A4D8EA"/>
<path d="M528.242 109.172L532.715 103.195L535.703 109.172L524.504 115.141L528.242 109.172Z" fill="#A4D8EA"/>
<path d="M592.367 120.359V130.66L605.035 134.379L592.367 139.02L576.707 130.66L581.93 115.141L584.91 121.109L592.367 120.359Z" fill="#A4D8EA"/>
<path d="M595.348 96.9023V64.4023L590.867 74.1094L587.891 84.4648L595.348 96.9023Z" fill="#A4D8EA"/>
<path d="M604.012 400.227H554.859L564.035 380.051L569.992 352.414L556.574 321.094L552.848 278.559V248.562L561.426 289.746L576.707 306.918L591.625 326.617L605.035 344.227V357.656L600.562 370.336V385.277L604.012 400.227Z" fill="#183756"/>
<path d="M744.469 351.688L719.855 339L711.66 326.617L708.684 315.859L697.48 306.918L687.051 296.457L681.094 271.09L672.883 248.562L643.812 217.367L683.328 242.734L699.73 281.543L709.418 298.699L719.855 310.645L723.594 326.617L740.738 341.234L744.469 351.688Z" fill="#183756"/>
</g>
<defs>
<clipPath id="clip0_3_716">
<rect width="810" height="400" fill="white"/>
</clipPath>
</defs>
</svg>
