<?xml version="1.0" encoding="UTF-8"?>
<svg xmlns="http://www.w3.org/2000/svg" xmlns:xlink="http://www.w3.org/1999/xlink" width="810pt" height="809.999993pt" viewBox="0 0 810 809.999993" version="1.2">
<defs>
<clipPath id="clip1">
  <path d="M 28.210938 142 L 781.960938 142 L 781.960938 668.433594 L 28.210938 668.433594 Z M 28.210938 142 "/>
</clipPath>
<clipPath id="clip2">
  <path d="M 28.210938 142 L 781.960938 142 L 781.960938 668.433594 L 28.210938 668.433594 Z M 28.210938 142 "/>
</clipPath>
</defs>
<g id="surface1">
<path style=" stroke:none;fill-rule:nonzero;fill:rgb(100%,100%,100%);fill-opacity:1;" d="M 729.492188 388.617188 C 728.90625 349.074219 696.710938 317.195312 657.070312 317.195312 C 643.207031 317.195312 630.261719 321.101562 619.242188 327.867188 C 619.253906 327.460938 619.273438 327.058594 619.273438 326.652344 C 619.273438 265.71875 569.921875 216.3125 509.046875 216.3125 C 491.445312 216.3125 474.816406 220.46875 460.058594 227.808594 C 436.824219 179.949219 387.8125 146.957031 331.085938 146.957031 C 252.964844 146.957031 189.484375 209.539062 187.859375 287.347656 C 146.535156 295.402344 115.34375 331.800781 115.34375 375.523438 C 115.34375 383.816406 116.484375 391.84375 118.589844 399.460938 C 110.546875 395.265625 101.414062 392.863281 91.714844 392.863281 C 59.53125 392.863281 33.453125 418.976562 33.453125 451.1875 C 33.453125 483.394531 59.53125 509.507812 91.714844 509.507812 C 97.828125 509.507812 103.710938 508.5625 109.238281 506.8125 C 111.902344 545.308594 143.921875 575.714844 183.054688 575.714844 C 205.007812 575.714844 224.722656 566.140625 238.277344 550.9375 C 252.207031 615.558594 309.601562 663.984375 378.332031 663.984375 C 437.402344 663.984375 488.097656 628.210938 510.035156 577.128906 C 528.222656 592.003906 551.445312 600.933594 576.757812 600.933594 C 632.132812 600.933594 677.515625 558.230469 681.890625 503.925781 C 691.253906 509.441406 702.125 512.664062 713.765625 512.664062 C 748.554688 512.664062 776.757812 484.433594 776.757812 449.609375 C 776.757812 420.226562 756.65625 395.613281 729.492188 388.617188 "/>
<g clip-path="url(#clip1)" clip-rule="nonzero">
<path style="fill:none;stroke-width:40;stroke-linecap:round;stroke-linejoin:round;stroke:rgb(14.898682%,16.468811%,18.818665%);stroke-opacity:1;stroke-miterlimit:10;" d="M 3442.426677 2197.513267 C 3440.045616 2358.049213 3309.214249 2487.470715 3148.127534 2487.470715 C 3091.79163 2487.470715 3039.186055 2471.61218 2994.406234 2444.145198 C 2994.453855 2445.794486 2994.533224 2447.427915 2994.533224 2449.077203 C 2994.533224 2696.454485 2793.984391 2897.033232 2546.608024 2897.033232 C 2475.080951 2897.033232 2407.506439 2880.159751 2347.535449 2850.361564 C 2253.118442 3044.660331 2053.950625 3178.601515 1823.43217 3178.601515 C 1505.973241 3178.601515 1248.009089 2924.531931 1241.405613 2608.645779 C 1073.477316 2575.94548 946.725501 2428.175654 946.725501 2250.671075 C 946.725501 2217.003406 951.360633 2184.414117 959.916579 2153.489975 C 927.232548 2170.522041 890.119744 2180.27504 850.705247 2180.27504 C 719.921502 2180.27504 613.948412 2074.260735 613.948412 1943.491258 C 613.948412 1812.73764 719.921502 1706.723335 850.705247 1706.723335 C 875.54765 1706.723335 899.453503 1710.561101 921.914845 1717.665724 C 932.740736 1561.379865 1062.857784 1437.937031 1221.880913 1437.937031 C 1311.091333 1437.937031 1391.206099 1476.8063 1446.287978 1538.527717 C 1502.893735 1276.179977 1736.126599 1079.581723 2015.425057 1079.581723 C 2255.467756 1079.581723 2461.477156 1224.814183 2550.624081 1432.196242 C 2624.532215 1371.806941 2718.9016 1335.554331 2821.763436 1335.554331 C 3046.789577 1335.554331 3231.21069 1508.919832 3248.989279 1729.385182 C 3287.038634 1706.992931 3331.215253 1693.909639 3378.518999 1693.909639 C 3519.890529 1693.909639 3634.498933 1808.51927 3634.498933 1949.898106 C 3634.498933 2069.186004 3552.812666 2169.110631 3442.426677 2197.513267 Z M 3442.426677 2197.513267 " transform="matrix(0.246083,0,0,-0.246318,-117.628848,929.905293)"/>
</g>
<path style=" stroke:none;fill-rule:nonzero;fill:rgb(57.249451%,85.879517%,92.549133%);fill-opacity:1;" d="M 687.792969 509.652344 C 687.839844 509.652344 687.886719 509.660156 687.9375 509.660156 C 690.761719 508.363281 694.105469 508.582031 696.105469 510.796875 C 702.632812 511.941406 709.101562 513.421875 715.820312 513.527344 C 724.964844 513.671875 733.71875 511.914062 742.332031 508.902344 C 757.597656 503.5625 766.328125 493.054688 772.410156 478.324219 C 779.785156 460.492188 779.398438 442.066406 771 424.710938 C 770.355469 423.382812 769.671875 422.074219 768.988281 420.773438 C 766.488281 441.347656 756.070312 463.339844 738.429688 474.175781 C 717.957031 486.730469 696.558594 475.339844 682.628906 458.90625 C 678.910156 454.519531 675.21875 448.890625 669.855469 446.367188 C 661.683594 442.546875 651.839844 447.28125 644.917969 451.816406 C 628.953125 462.292969 625.320312 480.285156 622.359375 497.835938 C 618.839844 518.648438 614.121094 544.664062 593.019531 554.929688 C 574.796875 563.792969 554.5625 554.324219 540.796875 541.769531 C 525.867188 528.164062 509.34375 514.308594 487.589844 520.246094 C 467.769531 525.652344 461.78125 541.441406 458.503906 559.683594 C 454.707031 580.863281 447.621094 599.183594 429.136719 611.671875 C 395.617188 634.3125 346.773438 624.457031 317.621094 599.097656 C 301.394531 584.980469 293.695312 566.765625 290.40625 545.828125 C 287.898438 529.925781 287.148438 512.152344 276.007812 499.414062 C 264.953125 486.789062 246.082031 479.804688 229.761719 484.605469 C 206.160156 491.550781 201.183594 521.253906 179.265625 528.683594 C 160.070312 535.1875 154.523438 508.84375 155.601562 495.304688 C 156.273438 486.867188 158.261719 477.542969 153.523438 469.828125 C 146.523438 458.453125 133.027344 456.886719 121.898438 461.871094 C 111.851562 466.371094 103.027344 474.078125 91.761719 475.484375 C 73.882812 477.699219 61.683594 462.871094 64.886719 445.550781 C 69.269531 421.910156 92.183594 414.53125 112.632812 422.554688 C 125.117188 427.453125 138.421875 439.25 152.351562 438.625 C 172.574219 437.710938 166.261719 411.84375 160.214844 400.394531 C 149.410156 379.890625 134.933594 363.4375 153.121094 342.175781 C 162.761719 330.898438 173.699219 323.230469 172.605469 306.582031 C 172.34375 302.695312 171.679688 297.097656 170.394531 291.371094 C 165.789062 293.851562 161.15625 296.289062 156.65625 299.011719 C 145.746094 305.609375 137.855469 314.683594 130.328125 324.816406 C 129.867188 325.433594 129.339844 325.921875 128.800781 326.355469 C 126.570312 330.667969 124.589844 335.074219 122.917969 339.519531 C 116.707031 356.019531 117.476562 371.300781 117.765625 388.589844 C 117.851562 393.921875 113.398438 396.304688 109.304688 395.816406 C 107.882812 396.625 106.191406 397.039062 104.25 396.769531 C 87.070312 394.390625 67.683594 394.507812 53.148438 405.332031 C 38.738281 416.058594 33.183594 433.910156 33.808594 451.277344 C 34.375 466.871094 40.074219 484.835938 51.957031 495.621094 C 65.269531 507.707031 85.648438 505.984375 102.308594 507.457031 C 103.171875 507.535156 103.933594 507.746094 104.632812 508.035156 C 107.488281 508.132812 110.140625 509.765625 110.921875 513.453125 C 116.371094 539.460938 129.453125 563.148438 154.800781 574.058594 C 178.957031 584.453125 210.015625 582.535156 226.914062 559.925781 C 231.347656 554 240.085938 557.097656 241.265625 562.386719 C 242.601562 563.253906 243.691406 564.601562 244.238281 566.5625 C 251.140625 591.378906 263.472656 614.066406 283.054688 631.125 C 299.808594 645.722656 320.214844 653.257812 340.566406 661.023438 C 357.339844 663.089844 372.316406 667.265625 389.722656 664.699219 C 398.777344 663.371094 407.679688 661.070312 416.601562 659.105469 C 424.464844 657.382812 435.046875 656.722656 441.996094 652.515625 C 447.792969 649.003906 452.886719 643.953125 458.714844 640.304688 C 465.691406 635.9375 473.179688 632.253906 479.398438 626.796875 C 488.609375 618.722656 500.953125 606.003906 505.941406 593.667969 C 503.804688 588.445312 510.0625 580.890625 517.0625 583.988281 C 533.578125 591.320312 550.675781 597.644531 568.683594 599.980469 C 586.859375 602.339844 604.019531 598.808594 621.136719 592.667969 C 638.007812 586.605469 648.109375 573.394531 658.464844 559.492188 C 663.421875 552.824219 669.238281 546.667969 673.804688 539.730469 C 676.476562 535.667969 681.464844 528.402344 682.851562 522.46875 C 678.621094 518.070312 680.226562 509.015625 687.792969 509.652344 "/>
<path style="fill:none;stroke-width:40;stroke-linecap:round;stroke-linejoin:round;stroke:rgb(14.898682%,16.468811%,18.818665%);stroke-opacity:1;stroke-miterlimit:10;" d="M 2241.990951 2677.202224 C 2263.357005 2750.008757 2307.962215 2815.821676 2367.695099 2862.620212 " transform="matrix(0.246083,0,0,-0.246318,-117.628848,929.905293)"/>
<path style="fill:none;stroke-width:40;stroke-linecap:round;stroke-linejoin:round;stroke:rgb(14.898682%,16.468811%,18.818665%);stroke-opacity:1;stroke-miterlimit:10;" d="M 2935.736891 2277.471999 C 2969.055871 2333.373334 2983.43748 2398.329892 2993.406189 2462.588674 " transform="matrix(0.246083,0,0,-0.246318,-117.628848,929.905293)"/>
<path style="fill:none;stroke-width:40;stroke-linecap:round;stroke-linejoin:round;stroke:rgb(14.898682%,16.468811%,18.818665%);stroke-opacity:1;stroke-miterlimit:10;" d="M 3482.269764 2181.845035 C 3430.584866 2195.197921 3372.693336 2181.845035 3332.104182 2147.162419 " transform="matrix(0.246083,0,0,-0.246318,-117.628848,929.905293)"/>
<path style="fill:none;stroke-width:40;stroke-linecap:round;stroke-linejoin:round;stroke:rgb(14.898682%,16.468811%,18.818665%);stroke-opacity:1;stroke-miterlimit:10;" d="M 3276.641334 1711.020998 C 3229.25822 1739.931107 3194.764583 1789.187716 3183.859323 1843.598348 " transform="matrix(0.246083,0,0,-0.246318,-117.628848,929.905293)"/>
<path style="fill:none;stroke-width:40;stroke-linecap:round;stroke-linejoin:round;stroke:rgb(14.898682%,16.468811%,18.818665%);stroke-opacity:1;stroke-miterlimit:10;" d="M 2509.415851 1525.587152 C 2521.21004 1471.525408 2557.545031 1426.962925 2606.213919 1394.310202 " transform="matrix(0.246083,0,0,-0.246318,-117.628848,929.905293)"/>
<path style="fill:none;stroke-width:40;stroke-linecap:round;stroke-linejoin:round;stroke:rgb(14.898682%,16.468811%,18.818665%);stroke-opacity:1;stroke-miterlimit:10;" d="M 1243.754927 2652.621495 C 1237.849896 2594.975722 1258.549253 2535.078036 1298.868553 2493.401807 " transform="matrix(0.246083,0,0,-0.246318,-117.628848,929.905293)"/>
<path style="fill:none;stroke-width:40;stroke-linecap:round;stroke-linejoin:round;stroke:rgb(14.898682%,16.468811%,18.818665%);stroke-opacity:1;stroke-miterlimit:10;" d="M 917.073354 2174.232938 C 964.535837 2148.367668 1005.07737 2109.894863 1033.443743 2063.920971 " transform="matrix(0.246083,0,0,-0.246318,-117.628848,929.905293)"/>
<path style="fill:none;stroke-width:40;stroke-linecap:round;stroke-linejoin:round;stroke:rgb(14.898682%,16.468811%,18.818665%);stroke-opacity:1;stroke-miterlimit:10;" d="M 915.581223 1715.477247 C 943.169783 1737.774346 966.361318 1765.510924 983.520831 1796.577793 " transform="matrix(0.246083,0,0,-0.246318,-117.628848,929.905293)"/>
<path style="fill:none;stroke-width:40;stroke-linecap:round;stroke-linejoin:round;stroke:rgb(14.898682%,16.468811%,18.818665%);stroke-opacity:1;stroke-miterlimit:10;" d="M 1460.860071 1486.178694 C 1442.271921 1545.52133 1440.113093 1609.92284 1454.732807 1670.359715 " transform="matrix(0.246083,0,0,-0.246318,-117.628848,929.905293)"/>
<path style="fill:none;stroke-width:30;stroke-linecap:round;stroke-linejoin:round;stroke:rgb(14.898682%,16.468811%,18.818665%);stroke-opacity:1;stroke-miterlimit:10;" d="M 1364.062004 2669.304674 C 1418.985145 2850.631159 1572.611202 2998.686439 1755.825911 3046.928102 " transform="matrix(0.246083,0,0,-0.246318,-117.628848,929.905293)"/>
<path style="fill:none;stroke-width:30;stroke-linecap:round;stroke-linejoin:round;stroke:rgb(14.898682%,16.468811%,18.818665%);stroke-opacity:1;stroke-miterlimit:10;" d="M 1863.354627 3057.315442 C 1884.41908 3058.171803 1905.626397 3054.191311 1924.960612 3045.786287 " transform="matrix(0.246083,0,0,-0.246318,-117.628848,929.905293)"/>
<path style="fill:none;stroke-width:30;stroke-linecap:round;stroke-linejoin:round;stroke:rgb(14.898682%,16.468811%,18.818665%);stroke-opacity:1;stroke-miterlimit:10;" d="M 2676.915557 1477.266197 C 2729.060794 1443.677821 2792.857355 1428.596354 2854.526836 1435.288656 C 2916.164569 1441.996816 2975.278377 1470.431169 3018.978784 1514.422744 " transform="matrix(0.246083,0,0,-0.246318,-117.628848,929.905293)"/>
<path style="fill:none;stroke-width:30;stroke-linecap:round;stroke-linejoin:round;stroke:rgb(14.898682%,16.468811%,18.818665%);stroke-opacity:1;stroke-miterlimit:10;" d="M 3084.061119 1581.726365 C 3095.426717 1594.349759 3102.268299 1610.985362 3103.093733 1627.969852 " transform="matrix(0.246083,0,0,-0.246318,-117.628848,929.905293)"/>
<g clip-path="url(#clip2)" clip-rule="nonzero">
<path style="fill:none;stroke-width:40;stroke-linecap:round;stroke-linejoin:round;stroke:rgb(14.898682%,16.468811%,18.818665%);stroke-opacity:1;stroke-miterlimit:10;" d="M 3442.426677 2197.513267 C 3440.045616 2358.049213 3309.214249 2487.470715 3148.127534 2487.470715 C 3091.79163 2487.470715 3039.186055 2471.61218 2994.406234 2444.145198 C 2994.453855 2445.794486 2994.533224 2447.427915 2994.533224 2449.077203 C 2994.533224 2696.454485 2793.984391 2897.033232 2546.608024 2897.033232 C 2475.080951 2897.033232 2407.506439 2880.159751 2347.535449 2850.361564 C 2253.118442 3044.660331 2053.950625 3178.601515 1823.43217 3178.601515 C 1505.973241 3178.601515 1248.009089 2924.531931 1241.405613 2608.645779 C 1073.477316 2575.94548 946.725501 2428.175654 946.725501 2250.671075 C 946.725501 2217.003406 951.360633 2184.414117 959.916579 2153.489975 C 927.232548 2170.522041 890.119744 2180.27504 850.705247 2180.27504 C 719.921502 2180.27504 613.948412 2074.260735 613.948412 1943.491258 C 613.948412 1812.73764 719.921502 1706.723335 850.705247 1706.723335 C 875.54765 1706.723335 899.453503 1710.561101 921.914845 1717.665724 C 932.740736 1561.379865 1062.857784 1437.937031 1221.880913 1437.937031 C 1311.091333 1437.937031 1391.206099 1476.8063 1446.287978 1538.527717 C 1502.893735 1276.179977 1736.126599 1079.581723 2015.425057 1079.581723 C 2255.467756 1079.581723 2461.477156 1224.814183 2550.624081 1432.196242 C 2624.532215 1371.806941 2718.9016 1335.554331 2821.763436 1335.554331 C 3046.789577 1335.554331 3231.21069 1508.919832 3248.989279 1729.385182 C 3287.038634 1706.992931 3331.215253 1693.909639 3378.518999 1693.909639 C 3519.890529 1693.909639 3634.498933 1808.51927 3634.498933 1949.898106 C 3634.498933 2069.186004 3552.812666 2169.110631 3442.426677 2197.513267 Z M 3442.426677 2197.513267 " transform="matrix(0.246083,0,0,-0.246318,-117.628848,929.905293)"/>
</g>
</g>
</svg>
