<?xml version="1.0" encoding="UTF-8"?>
<svg xmlns="http://www.w3.org/2000/svg" xmlns:xlink="http://www.w3.org/1999/xlink" width="810pt" height="809.999993pt" viewBox="0 0 810 809.999993" version="1.2">
<defs>
<clipPath id="clip1">
  <path d="M 30 234 L 761 234 L 761 745.5 L 30 745.5 Z M 30 234 "/>
</clipPath>
<clipPath id="clip2">
  <path d="M 30 234 L 761 234 L 761 745.5 L 30 745.5 Z M 30 234 "/>
</clipPath>
</defs>
<g id="surface1">
<path style=" stroke:none;fill-rule:nonzero;fill:rgb(100%,100%,100%);fill-opacity:1;" d="M 571.128906 142.558594 C 652.339844 142.558594 718.160156 208.476562 718.160156 289.785156 C 718.160156 371.105469 652.339844 437.023438 571.128906 437.023438 C 489.929688 437.023438 424.097656 371.105469 424.097656 289.785156 C 424.097656 208.476562 489.929688 142.558594 571.128906 142.558594 "/>
<path style="fill:none;stroke-width:40;stroke-linecap:round;stroke-linejoin:round;stroke:rgb(14.898682%,16.468811%,18.818665%);stroke-opacity:1;stroke-miterlimit:10;" d="M 2815.586788 3244.928764 C 3151.217167 3244.928764 3423.240827 2972.864924 3423.240827 2637.279214 C 3423.240827 2301.645138 3151.217167 2029.581298 2815.586788 2029.581298 C 2480.00484 2029.581298 2207.932749 2301.645138 2207.932749 2637.279214 C 2207.932749 2972.864924 2480.00484 3244.928764 2815.586788 3244.928764 Z M 2815.586788 3244.928764 " transform="matrix(0.241965,0,0,-0.242289,-110.145665,928.767861)"/>
<path style="fill:none;stroke-width:40;stroke-linecap:round;stroke-linejoin:round;stroke:rgb(14.898682%,16.468811%,18.818665%);stroke-opacity:1;stroke-miterlimit:10;" d="M 2382.73822 2204.379292 L 2220.395792 2042.076081 " transform="matrix(0.241965,0,0,-0.242289,-110.145665,928.767861)"/>
<path style="fill:none;stroke-width:40;stroke-linecap:round;stroke-linejoin:round;stroke:rgb(14.898682%,16.468811%,18.818665%);stroke-opacity:1;stroke-miterlimit:10;" d="M 3410.777784 3232.466225 L 3247.74117 3069.389144 " transform="matrix(0.241965,0,0,-0.242289,-110.145665,928.767861)"/>
<path style="fill:none;stroke-width:40;stroke-linecap:round;stroke-linejoin:round;stroke:rgb(14.898682%,16.468811%,18.818665%);stroke-opacity:1;stroke-miterlimit:10;" d="M 2815.586788 2029.581298 L 2815.586788 1795.517722 " transform="matrix(0.241965,0,0,-0.242289,-110.145665,928.767861)"/>
<path style="fill:none;stroke-width:40;stroke-linecap:round;stroke-linejoin:round;stroke:rgb(14.898682%,16.468811%,18.818665%);stroke-opacity:1;stroke-miterlimit:10;" d="M 2815.586788 3478.99234 L 2815.586788 3244.928764 " transform="matrix(0.241965,0,0,-0.242289,-110.145665,928.767861)"/>
<path style="fill:none;stroke-width:40;stroke-linecap:round;stroke-linejoin:round;stroke:rgb(14.898682%,16.468811%,18.818665%);stroke-opacity:1;stroke-miterlimit:10;" d="M 3244.722273 2208.135789 L 3410.777784 2042.076081 " transform="matrix(0.241965,0,0,-0.242289,-110.145665,928.767861)"/>
<path style="fill:none;stroke-width:40;stroke-linecap:round;stroke-linejoin:round;stroke:rgb(14.898682%,16.468811%,18.818665%);stroke-opacity:1;stroke-miterlimit:10;" d="M 2220.395792 3232.466225 L 2384.223453 3068.647518 " transform="matrix(0.241965,0,0,-0.242289,-110.145665,928.767861)"/>
<path style="fill:none;stroke-width:40;stroke-linecap:round;stroke-linejoin:round;stroke:rgb(14.898682%,16.468811%,18.818665%);stroke-opacity:1;stroke-miterlimit:10;" d="M 3423.240827 2637.279214 L 3657.342612 2637.279214 " transform="matrix(0.241965,0,0,-0.242289,-110.145665,928.767861)"/>
<path style="fill:none;stroke-width:40;stroke-linecap:round;stroke-linejoin:round;stroke:rgb(14.898682%,16.468811%,18.818665%);stroke-opacity:1;stroke-miterlimit:10;" d="M 1973.863251 2637.279214 L 2207.932749 2637.279214 " transform="matrix(0.241965,0,0,-0.242289,-110.145665,928.767861)"/>
<path style=" stroke:none;fill-rule:nonzero;fill:rgb(98.039246%,96.078491%,60.778809%);fill-opacity:1;" d="M 649.851562 198.824219 C 653.492188 209 652.101562 218.167969 651.542969 228.722656 C 650.761719 243.628906 655.582031 254.230469 662.847656 266.808594 C 671.515625 281.808594 675.050781 296.914062 666.535156 312.925781 C 661.914062 321.597656 654.816406 328.5625 649.351562 336.652344 C 642.914062 346.203125 641.117188 356.859375 637.507812 367.546875 C 631.554688 385.207031 620.078125 395.777344 601.234375 397.066406 C 595.238281 397.472656 589.378906 396.675781 583.40625 398.171875 C 575.597656 400.132812 568.992188 405.234375 561.769531 408.554688 C 553.738281 412.253906 545.417969 413.960938 536.59375 414.101562 C 521.59375 414.328125 503.511719 407.144531 488.246094 409.445312 C 511.894531 425.734375 540.515625 435.3125 571.394531 435.3125 C 652.601562 435.3125 718.425781 369.390625 718.425781 288.082031 C 718.425781 227.207031 681.535156 174.984375 628.917969 152.570312 C 629.539062 167.222656 646.949219 190.683594 649.851562 198.824219 "/>
<path style="fill:none;stroke-width:40;stroke-linecap:round;stroke-linejoin:round;stroke:rgb(14.898682%,16.468811%,18.818665%);stroke-opacity:1;stroke-miterlimit:10;" d="M 2815.586788 3244.928764 C 3151.217167 3244.928764 3423.240827 2972.864924 3423.240827 2637.279214 C 3423.240827 2301.645138 3151.217167 2029.581298 2815.586788 2029.581298 C 2480.00484 2029.581298 2207.932749 2301.645138 2207.932749 2637.279214 C 2207.932749 2972.864924 2480.00484 3244.928764 2815.586788 3244.928764 Z M 2815.586788 3244.928764 " transform="matrix(0.241965,0,0,-0.242289,-110.145665,928.767861)"/>
<path style="fill:none;stroke-width:30;stroke-linecap:round;stroke-linejoin:round;stroke:rgb(14.898682%,16.468811%,18.818665%);stroke-opacity:1;stroke-miterlimit:10;" d="M 2798.086868 3136.570775 C 2983.902436 3116.337286 3155.462996 2994.339829 3235.66558 2825.474842 " transform="matrix(0.241965,0,0,-0.242289,-110.145665,928.767861)"/>
<path style="fill:none;stroke-width:30;stroke-linecap:round;stroke-linejoin:round;stroke:rgb(14.898682%,16.468811%,18.818665%);stroke-opacity:1;stroke-miterlimit:10;" d="M 3264.224028 2747.426779 C 3268.082406 2732.239571 3270.859146 2716.729917 3272.538105 2701.107407 " transform="matrix(0.241965,0,0,-0.242289,-110.145665,928.767861)"/>
<path style=" stroke:none;fill-rule:nonzero;fill:rgb(100%,100%,100%);fill-opacity:1;" d="M 710.277344 473.652344 C 709.710938 435.273438 678.480469 404.335938 640.023438 404.335938 C 626.574219 404.335938 614.011719 408.128906 603.332031 414.6875 C 603.332031 414.289062 603.359375 413.914062 603.359375 413.515625 C 603.359375 354.371094 555.476562 306.425781 496.414062 306.425781 C 479.332031 306.425781 463.207031 310.457031 448.890625 317.574219 C 426.355469 271.132812 378.792969 239.113281 323.765625 239.113281 C 247.972656 239.113281 186.386719 299.847656 184.804688 375.363281 C 144.710938 383.179688 114.449219 418.511719 114.449219 460.941406 C 114.449219 468.996094 115.5625 476.773438 117.605469 484.175781 C 109.796875 480.105469 100.941406 477.769531 91.535156 477.769531 C 60.316406 477.769531 35.003906 503.113281 35.003906 534.375 C 35.003906 565.636719 60.316406 590.980469 91.535156 590.980469 C 97.460938 590.980469 103.160156 590.054688 108.53125 588.371094 C 111.121094 625.726562 142.179688 655.234375 180.148438 655.234375 C 201.449219 655.234375 220.570312 645.941406 233.71875 631.1875 C 247.234375 693.90625 302.925781 740.90625 369.597656 740.90625 C 426.902344 740.90625 476.101562 706.183594 497.375 656.609375 C 515.011719 671.039062 537.546875 679.710938 562.101562 679.710938 C 615.824219 679.710938 659.851562 638.265625 664.105469 585.566406 C 673.179688 590.914062 683.726562 594.039062 695.03125 594.039062 C 728.785156 594.039062 756.136719 566.640625 756.136719 532.839844 C 756.136719 504.335938 736.636719 480.445312 710.277344 473.652344 "/>
<g clip-path="url(#clip1)" clip-rule="nonzero">
<path style="fill:none;stroke-width:40;stroke-linecap:round;stroke-linejoin:round;stroke:rgb(14.898682%,16.468811%,18.818665%);stroke-opacity:1;stroke-miterlimit:10;" d="M 3390.662563 1878.402475 C 3388.321706 2036.804089 3259.251727 2164.492718 3100.315648 2164.492718 C 3044.732416 2164.492718 2992.813835 2148.837963 2948.676583 2121.768618 C 2948.676583 2123.413093 2948.78959 2124.960834 2948.78959 2126.605309 C 2948.78959 2370.713079 2750.898432 2568.598209 2506.80361 2568.598209 C 2436.20661 2568.598209 2369.564849 2551.959994 2310.397685 2522.58516 C 2217.263887 2714.263205 2020.696523 2846.417712 1793.278286 2846.417712 C 1480.03941 2846.417712 1225.51567 2595.748165 1218.977416 2284.071829 C 1053.277069 2251.811104 928.210761 2105.984885 928.210761 1930.864444 C 928.210761 1897.620258 932.811754 1865.520756 941.254981 1834.968994 C 908.98345 1851.768432 872.385371 1861.409569 833.511011 1861.409569 C 704.489462 1861.409569 599.877396 1756.808076 599.877396 1627.781295 C 599.877396 1498.754515 704.489462 1394.153022 833.511011 1394.153022 C 858.001212 1394.153022 881.555071 1397.974007 903.752847 1404.922719 C 914.456211 1250.745149 1042.815862 1128.957282 1199.733961 1128.957282 C 1287.766307 1128.957282 1366.790391 1167.312237 1421.130547 1228.206171 C 1476.988224 969.346495 1707.150914 775.362962 1982.69393 775.362962 C 2219.524024 775.362962 2422.855656 918.674101 2510.774994 1123.282232 C 2583.66442 1063.726449 2676.798218 1027.93494 2778.27838 1027.93494 C 3000.304575 1027.93494 3182.261766 1198.99256 3199.842405 1416.498532 C 3237.344539 1394.427101 3280.9329 1381.52926 3327.653165 1381.52926 C 3467.152064 1381.52926 3580.191213 1494.611084 3580.191213 1634.11736 C 3580.191213 1751.761795 3499.617321 1850.365792 3390.662563 1878.402475 Z M 3390.662563 1878.402475 " transform="matrix(0.241965,0,0,-0.242289,-110.145665,928.767861)"/>
</g>
<path style=" stroke:none;fill-rule:nonzero;fill:rgb(57.249451%,85.879517%,92.549133%);fill-opacity:1;" d="M 681.523438 595.421875 C 681.734375 595.4375 681.921875 595.421875 682.128906 595.449219 C 687.640625 596.214844 692.972656 597.265625 698.3125 597.664062 C 698.640625 597.492188 698.953125 597.3125 699.324219 597.160156 C 724.910156 586.855469 755.050781 572.15625 757.101562 540.773438 C 758.007812 526.878906 755.125 511.054688 749.125 498.382812 C 748.3125 520.027344 737.933594 545.03125 718.953125 556.683594 C 699.097656 568.882812 678.339844 557.816406 664.816406 541.871094 C 661.214844 537.613281 657.632812 532.152344 652.421875 529.710938 C 644.503906 525.988281 634.957031 530.589844 628.234375 534.988281 C 612.734375 545.15625 609.21875 562.617188 606.347656 579.644531 C 602.933594 599.851562 598.359375 625.101562 577.886719 635.058594 C 560.203125 643.660156 540.570312 634.480469 527.214844 622.289062 C 512.734375 609.085938 496.707031 595.636719 475.597656 601.402344 C 456.363281 606.65625 450.5625 621.96875 447.375 639.675781 C 443.691406 660.222656 436.828125 678.007812 418.890625 690.128906 C 386.375 712.105469 338.984375 702.546875 310.703125 677.929688 C 294.957031 664.234375 287.492188 646.554688 284.296875 626.226562 C 281.867188 610.800781 281.140625 593.546875 270.324219 581.1875 C 259.609375 568.929688 241.300781 562.144531 225.457031 566.808594 C 202.566406 573.558594 197.738281 602.375 176.46875 609.589844 C 157.839844 615.902344 152.460938 590.328125 153.511719 577.191406 C 154.164062 569.003906 156.09375 559.957031 151.5 552.472656 C 144.710938 541.433594 131.621094 539.910156 120.816406 544.746094 C 111.0625 549.109375 102.507812 556.597656 91.582031 557.949219 C 74.238281 560.109375 62.394531 545.714844 65.507812 528.914062 C 69.757812 505.960938 91.988281 498.796875 111.828125 506.585938 C 123.9375 511.339844 136.847656 522.789062 150.355469 522.183594 C 169.976562 521.296875 163.851562 496.195312 157.992188 485.085938 C 147.5 465.191406 133.464844 449.214844 151.101562 428.574219 C 160.457031 417.632812 171.0625 410.191406 170.003906 394.035156 C 169.757812 390.261719 169.117188 384.847656 167.878906 379.300781 C 164.210938 380.863281 160.601562 382.621094 157.09375 384.5625 C 148.632812 390.707031 141.054688 397.957031 134.703125 407.34375 C 122.773438 424.964844 116.386719 445.398438 113.992188 466.390625 C 119.742188 474.378906 111.015625 487.496094 102.046875 480.738281 C 87.039062 469.421875 64.316406 483.050781 53.152344 494.566406 C 40.574219 507.554688 32.3125 527.105469 33.945312 545.34375 C 35.742188 565.199219 51.140625 582.910156 70.070312 588.664062 C 80.960938 591.964844 97.453125 588.578125 106.402344 596.207031 C 106.601562 596.367188 106.761719 596.539062 106.933594 596.707031 C 109.625 598.144531 111.648438 600.816406 111.792969 604.734375 C 112.785156 631.828125 137.113281 650.503906 161.433594 657.316406 C 174.023438 660.847656 186.753906 660.972656 199.363281 657.621094 C 205.523438 655.984375 218.746094 653.976562 219.890625 646.414062 C 220.476562 642.503906 222.773438 640.394531 225.554688 639.703125 C 230.96875 635.929688 240.882812 638.453125 241.347656 647.257812 C 242.027344 660.167969 250.195312 670.53125 256.839844 681.0625 C 263.171875 691.113281 269.34375 701.363281 277.679688 709.902344 C 293.273438 725.859375 314.824219 732.539062 335.402344 739.894531 C 336.449219 739.554688 337.621094 739.355469 338.972656 739.429688 C 370.476562 741.199219 399.722656 745.222656 429.730469 732.75 C 435.714844 730.257812 441.707031 727.363281 447.488281 724.089844 C 447.765625 722.308594 448.578125 720.566406 450.136719 719.054688 C 466.808594 702.871094 484.484375 687.1875 496.25 666.875 C 500.65625 659.285156 510.191406 661.953125 513.207031 667.957031 C 536.753906 683.996094 569.964844 688.351562 597.09375 679.425781 C 608.039062 675.828125 619.164062 670.027344 629.011719 662.578125 C 629.464844 661.253906 630.269531 659.996094 631.589844 658.917969 C 650.050781 643.90625 656.5625 620.851562 665.15625 599.59375 C 668.121094 592.25 676.921875 591.757812 681.523438 595.421875 "/>
<path style="fill:none;stroke-width:40;stroke-linecap:round;stroke-linejoin:round;stroke:rgb(14.898682%,16.468811%,18.818665%);stroke-opacity:1;stroke-miterlimit:10;" d="M 2206.25379 2351.721007 C 2227.337642 2423.561983 2271.329599 2488.486492 2330.270749 2534.693009 " transform="matrix(0.241965,0,0,-0.242289,-110.145665,928.767861)"/>
<path style="fill:none;stroke-width:40;stroke-linecap:round;stroke-linejoin:round;stroke:rgb(14.898682%,16.468811%,18.818665%);stroke-opacity:1;stroke-miterlimit:10;" d="M 2890.784782 1957.305019 C 2923.637491 2012.427169 2937.811781 2076.52944 2947.659521 2139.970697 " transform="matrix(0.241965,0,0,-0.242289,-110.145665,928.767861)"/>
<path style="fill:none;stroke-width:40;stroke-linecap:round;stroke-linejoin:round;stroke:rgb(14.898682%,16.468811%,18.818665%);stroke-opacity:1;stroke-miterlimit:10;" d="M 3430.005094 1862.941188 C 3378.990568 1876.145353 3321.922103 1862.941188 3281.836955 1828.713541 " transform="matrix(0.241965,0,0,-0.242289,-110.145665,928.767861)"/>
<path style="fill:none;stroke-width:40;stroke-linecap:round;stroke-linejoin:round;stroke:rgb(14.898682%,16.468811%,18.818665%);stroke-opacity:1;stroke-miterlimit:10;" d="M 3227.109346 1398.40931 C 3180.356793 1426.929661 3146.325584 1475.522278 3135.589932 1529.225665 " transform="matrix(0.241965,0,0,-0.242289,-110.145665,928.767861)"/>
<path style="fill:none;stroke-width:40;stroke-linecap:round;stroke-linejoin:round;stroke:rgb(14.898682%,16.468811%,18.818665%);stroke-opacity:1;stroke-miterlimit:10;" d="M 2470.124812 1215.469553 C 2481.764519 1162.120856 2517.619981 1118.139217 2565.631754 1085.862369 " transform="matrix(0.241965,0,0,-0.242289,-110.145665,928.767861)"/>
<path style="fill:none;stroke-width:40;stroke-linecap:round;stroke-linejoin:round;stroke:rgb(14.898682%,16.468811%,18.818665%);stroke-opacity:1;stroke-miterlimit:10;" d="M 1221.334416 2327.473065 C 1215.474203 2270.561341 1235.944589 2211.489227 1275.658429 2170.361236 " transform="matrix(0.241965,0,0,-0.242289,-110.145665,928.767861)"/>
<path style="fill:none;stroke-width:40;stroke-linecap:round;stroke-linejoin:round;stroke:rgb(14.898682%,16.468811%,18.818665%);stroke-opacity:1;stroke-miterlimit:10;" d="M 898.990415 1855.444317 C 945.775256 1829.890469 985.779685 1791.954693 1013.789243 1746.570414 " transform="matrix(0.241965,0,0,-0.242289,-110.145665,928.767861)"/>
<path style="fill:none;stroke-width:40;stroke-linecap:round;stroke-linejoin:round;stroke:rgb(14.898682%,16.468811%,18.818665%);stroke-opacity:1;stroke-miterlimit:10;" d="M 897.505182 1402.778453 C 924.723692 1424.81764 947.615653 1452.161063 964.534395 1482.825681 " transform="matrix(0.241965,0,0,-0.242289,-110.145665,928.767861)"/>
<path style="fill:none;stroke-width:40;stroke-linecap:round;stroke-linejoin:round;stroke:rgb(14.898682%,16.468811%,18.818665%);stroke-opacity:1;stroke-miterlimit:10;" d="M 1435.514706 1176.566439 C 1417.143019 1235.122638 1415.04432 1298.644507 1429.460767 1358.297023 " transform="matrix(0.241965,0,0,-0.242289,-110.145665,928.767861)"/>
<path style="fill:none;stroke-width:30;stroke-linecap:round;stroke-linejoin:round;stroke:rgb(14.898682%,16.468811%,18.818665%);stroke-opacity:1;stroke-miterlimit:10;" d="M 1340.007764 2343.917813 C 1394.21877 2522.826995 1545.777115 2668.91117 1726.555806 2716.488082 " transform="matrix(0.241965,0,0,-0.242289,-110.145665,928.767861)"/>
<path style="fill:none;stroke-width:30;stroke-linecap:round;stroke-linejoin:round;stroke:rgb(14.898682%,16.468811%,18.818665%);stroke-opacity:1;stroke-miterlimit:10;" d="M 1832.653106 2726.757989 C 1853.430224 2727.580226 1874.368781 2723.678629 1893.434653 2715.391766 " transform="matrix(0.241965,0,0,-0.242289,-110.145665,928.767861)"/>
<path style="fill:none;stroke-width:30;stroke-linecap:round;stroke-linejoin:round;stroke:rgb(14.898682%,16.468811%,18.818665%);stroke-opacity:1;stroke-miterlimit:10;" d="M 2635.356987 1167.74754 C 2686.839685 1134.61621 2749.768363 1119.735325 2810.63063 1126.329347 C 2871.444465 1132.93949 2929.77215 1160.992295 2972.892339 1204.425776 " transform="matrix(0.241965,0,0,-0.242289,-110.145665,928.767861)"/>
<path style="fill:none;stroke-width:30;stroke-linecap:round;stroke-linejoin:round;stroke:rgb(14.898682%,16.468811%,18.818665%);stroke-opacity:1;stroke-miterlimit:10;" d="M 3037.112524 1270.78517 C 3048.316347 1283.296076 3055.080615 1299.692456 3055.855519 1316.45965 " transform="matrix(0.241965,0,0,-0.242289,-110.145665,928.767861)"/>
<g clip-path="url(#clip2)" clip-rule="nonzero">
<path style="fill:none;stroke-width:40;stroke-linecap:round;stroke-linejoin:round;stroke:rgb(14.898682%,16.468811%,18.818665%);stroke-opacity:1;stroke-miterlimit:10;" d="M 3390.662563 1878.402475 C 3388.321706 2036.804089 3259.251727 2164.492718 3100.315648 2164.492718 C 3044.732416 2164.492718 2992.813835 2148.837963 2948.676583 2121.768618 C 2948.676583 2123.413093 2948.78959 2124.960834 2948.78959 2126.605309 C 2948.78959 2370.713079 2750.898432 2568.598209 2506.80361 2568.598209 C 2436.20661 2568.598209 2369.564849 2551.959994 2310.397685 2522.58516 C 2217.263887 2714.263205 2020.696523 2846.417712 1793.278286 2846.417712 C 1480.03941 2846.417712 1225.51567 2595.748165 1218.977416 2284.071829 C 1053.277069 2251.811104 928.210761 2105.984885 928.210761 1930.864444 C 928.210761 1897.620258 932.811754 1865.520756 941.254981 1834.968994 C 908.98345 1851.768432 872.385371 1861.409569 833.511011 1861.409569 C 704.489462 1861.409569 599.877396 1756.808076 599.877396 1627.781295 C 599.877396 1498.754515 704.489462 1394.153022 833.511011 1394.153022 C 858.001212 1394.153022 881.555071 1397.974007 903.752847 1404.922719 C 914.456211 1250.745149 1042.815862 1128.957282 1199.733961 1128.957282 C 1287.766307 1128.957282 1366.790391 1167.312237 1421.130547 1228.206171 C 1476.988224 969.346495 1707.150914 775.362962 1982.69393 775.362962 C 2219.524024 775.362962 2422.855656 918.674101 2510.774994 1123.282232 C 2583.66442 1063.726449 2676.798218 1027.93494 2778.27838 1027.93494 C 3000.304575 1027.93494 3182.261766 1198.99256 3199.842405 1416.498532 C 3237.344539 1394.427101 3280.9329 1381.52926 3327.653165 1381.52926 C 3467.152064 1381.52926 3580.191213 1494.611084 3580.191213 1634.11736 C 3580.191213 1751.761795 3499.617321 1850.365792 3390.662563 1878.402475 Z M 3390.662563 1878.402475 " transform="matrix(0.241965,0,0,-0.242289,-110.145665,928.767861)"/>
</g>
</g>
</svg>
