<?xml version="1.0" encoding="UTF-8"?>
<svg xmlns="http://www.w3.org/2000/svg" xmlns:xlink="http://www.w3.org/1999/xlink" width="810pt" height="809.999993pt" viewBox="0 0 810 809.999993" version="1.2">
<defs>
<clipPath id="clip1">
  <path d="M 95.40625 95.40625 L 714.90625 95.40625 L 714.90625 714.90625 L 95.40625 714.90625 Z M 95.40625 95.40625 "/>
</clipPath>
</defs>
<g id="surface1">
<path style=" stroke:none;fill-rule:nonzero;fill:rgb(28.239441%,81.17981%,67.83905%);fill-opacity:1;" d="M 205.375 105.402344 L 205.375 205.375 L 105.402344 205.375 Z M 205.375 105.402344 "/>
<path style=" stroke:none;fill-rule:nonzero;fill:rgb(90.19928%,91.369629%,92.939758%);fill-opacity:1;" d="M 205.375 105.402344 L 205.375 205.375 L 105.402344 205.375 L 105.402344 705.226562 L 545.273438 705.226562 L 545.273438 105.402344 L 205.375 105.402344 "/>
<path style=" stroke:none;fill-rule:nonzero;fill:rgb(90.19928%,91.369629%,92.939758%);fill-opacity:1;" d="M 705.226562 345.332031 L 655.242188 395.316406 L 595.257812 335.335938 L 645.242188 285.351562 C 678.320312 285.351562 705.226562 312.257812 705.226562 345.332031 "/>
<path style=" stroke:none;fill-rule:nonzero;fill:rgb(98.81897%,84.309387%,43.919373%);fill-opacity:1;" d="M 405.316406 645.242188 L 335.335938 655.242188 L 345.332031 585.261719 L 405.316406 645.242188 "/>
<path style=" stroke:none;fill-rule:nonzero;fill:rgb(98.81897%,84.309387%,43.919373%);fill-opacity:1;" d="M 655.242188 395.316406 L 625.25 425.308594 L 565.269531 365.328125 L 595.257812 335.335938 L 655.242188 395.316406 "/>
<path style=" stroke:none;fill-rule:nonzero;fill:rgb(28.239441%,81.17981%,67.83905%);fill-opacity:1;" d="M 625.25 425.308594 L 405.316406 645.242188 L 375.324219 615.253906 L 595.257812 395.316406 L 625.25 425.308594 "/>
<path style=" stroke:none;fill-rule:nonzero;fill:rgb(100%,50.979614%,43.139648%);fill-opacity:1;" d="M 545.273438 385.320312 L 565.269531 365.328125 L 595.257812 395.316406 L 375.324219 615.253906 L 345.332031 585.261719 L 545.273438 385.320312 "/>
<path style=" stroke:none;fill-rule:nonzero;fill:rgb(98.81897%,84.309387%,43.919373%);fill-opacity:1;" d="M 485.292969 145.390625 C 496.304688 145.390625 505.285156 154.375 505.285156 165.386719 C 505.285156 176.398438 496.304688 185.378906 485.292969 185.378906 C 474.277344 185.378906 465.296875 176.398438 465.296875 165.386719 C 465.296875 154.375 474.277344 145.390625 485.292969 145.390625 "/>
<path style=" stroke:none;fill-rule:nonzero;fill:rgb(98.81897%,84.309387%,43.919373%);fill-opacity:1;" d="M 405.316406 145.390625 C 416.328125 145.390625 425.308594 154.375 425.308594 165.386719 C 425.308594 176.398438 416.328125 185.378906 405.316406 185.378906 C 394.300781 185.378906 385.320312 176.398438 385.320312 165.386719 C 385.320312 154.375 394.300781 145.390625 405.316406 145.390625 "/>
<path style=" stroke:none;fill-rule:nonzero;fill:rgb(98.81897%,84.309387%,43.919373%);fill-opacity:1;" d="M 325.339844 145.390625 C 336.351562 145.390625 345.332031 154.375 345.332031 165.386719 C 345.332031 176.398438 336.351562 185.378906 325.339844 185.378906 C 314.328125 185.378906 305.34375 176.398438 305.34375 165.386719 C 305.34375 154.375 314.328125 145.390625 325.339844 145.390625 "/>
<path style=" stroke:none;fill-rule:nonzero;fill:rgb(98.81897%,84.309387%,43.919373%);fill-opacity:1;" d="M 365.328125 305.34375 L 365.328125 505.285156 L 145.390625 505.285156 L 145.390625 305.34375 L 365.328125 305.34375 "/>
<g clip-path="url(#clip1)" clip-rule="nonzero">
<path style=" stroke:none;fill-rule:nonzero;fill:rgb(11.759949%,9.01947%,7.449341%);fill-opacity:1;" d="M 655.242188 381.179688 L 609.394531 335.335938 L 649.226562 295.503906 C 673.632812 297.457031 693.121094 316.941406 695.074219 341.347656 Z M 535.277344 695.230469 L 115.402344 695.230469 L 115.402344 215.371094 L 215.371094 215.371094 L 215.371094 115.402344 L 535.277344 115.402344 L 535.277344 381.179688 L 335.921875 580.535156 L 323.542969 667.035156 L 410.039062 654.65625 L 535.277344 529.417969 Z M 195.378906 129.539062 L 195.378906 195.378906 L 129.539062 195.378906 Z M 579.402344 365.328125 L 595.257812 349.472656 L 641.105469 395.316406 L 625.25 411.171875 Z M 405.316406 631.109375 L 389.460938 615.253906 L 595.257812 409.453125 L 611.113281 425.308594 Z M 352.402344 606.464844 L 384.109375 638.175781 L 347.128906 643.449219 Z M 359.46875 585.261719 L 565.269531 379.464844 L 581.121094 395.316406 L 375.324219 601.117188 Z M 715.222656 345.332031 C 715.222656 306.75 683.828125 275.351562 645.242188 275.351562 L 641.105469 275.351562 L 555.269531 361.1875 L 555.269531 95.40625 L 201.234375 95.40625 L 95.40625 201.234375 L 95.40625 715.222656 L 555.269531 715.222656 L 555.269531 509.425781 L 715.222656 349.472656 L 715.222656 345.332031 "/>
</g>
<path style=" stroke:none;fill-rule:nonzero;fill:rgb(11.759949%,9.01947%,7.449341%);fill-opacity:1;" d="M 485.292969 155.390625 C 490.796875 155.390625 495.289062 159.878906 495.289062 165.386719 C 495.289062 170.890625 490.796875 175.382812 485.292969 175.382812 C 479.785156 175.382812 475.292969 170.890625 475.292969 165.386719 C 475.292969 159.878906 479.785156 155.390625 485.292969 155.390625 Z M 485.292969 195.378906 C 501.847656 195.378906 515.28125 181.945312 515.28125 165.386719 C 515.28125 148.828125 501.847656 135.394531 485.292969 135.394531 C 468.734375 135.394531 455.300781 148.828125 455.300781 165.386719 C 455.300781 181.945312 468.734375 195.378906 485.292969 195.378906 "/>
<path style=" stroke:none;fill-rule:nonzero;fill:rgb(11.759949%,9.01947%,7.449341%);fill-opacity:1;" d="M 405.316406 155.390625 C 410.820312 155.390625 415.3125 159.878906 415.3125 165.386719 C 415.3125 170.890625 410.820312 175.382812 405.316406 175.382812 C 399.808594 175.382812 395.316406 170.890625 395.316406 165.386719 C 395.316406 159.878906 399.808594 155.390625 405.316406 155.390625 Z M 405.316406 195.378906 C 421.871094 195.378906 435.304688 181.945312 435.304688 165.386719 C 435.304688 148.828125 421.871094 135.394531 405.316406 135.394531 C 388.757812 135.394531 375.324219 148.828125 375.324219 165.386719 C 375.324219 181.945312 388.757812 195.378906 405.316406 195.378906 "/>
<path style=" stroke:none;fill-rule:nonzero;fill:rgb(11.759949%,9.01947%,7.449341%);fill-opacity:1;" d="M 325.339844 155.390625 C 330.84375 155.390625 335.335938 159.878906 335.335938 165.386719 C 335.335938 170.890625 330.84375 175.382812 325.339844 175.382812 C 319.832031 175.382812 315.339844 170.890625 315.339844 165.386719 C 315.339844 159.878906 319.832031 155.390625 325.339844 155.390625 Z M 325.339844 195.378906 C 341.894531 195.378906 355.328125 181.945312 355.328125 165.386719 C 355.328125 148.828125 341.894531 135.394531 325.339844 135.394531 C 308.78125 135.394531 295.347656 148.828125 295.347656 165.386719 C 295.347656 181.945312 308.78125 195.378906 325.339844 195.378906 "/>
<path style=" stroke:none;fill-rule:nonzero;fill:rgb(11.759949%,9.01947%,7.449341%);fill-opacity:1;" d="M 515.28125 215.371094 L 255.359375 215.371094 L 255.359375 235.367188 L 515.28125 235.367188 L 515.28125 215.371094 "/>
<path style=" stroke:none;fill-rule:nonzero;fill:rgb(11.759949%,9.01947%,7.449341%);fill-opacity:1;" d="M 515.28125 255.359375 L 135.394531 255.359375 L 135.394531 275.351562 L 515.28125 275.351562 L 515.28125 255.359375 "/>
<path style=" stroke:none;fill-rule:nonzero;fill:rgb(11.759949%,9.01947%,7.449341%);fill-opacity:1;" d="M 135.394531 675.234375 L 305.34375 675.234375 L 305.34375 655.242188 L 135.394531 655.242188 L 135.394531 675.234375 "/>
<path style=" stroke:none;fill-rule:nonzero;fill:rgb(11.759949%,9.01947%,7.449341%);fill-opacity:1;" d="M 285.351562 635.246094 L 305.34375 635.246094 L 305.34375 615.253906 L 285.351562 615.253906 L 285.351562 635.246094 "/>
<path style=" stroke:none;fill-rule:nonzero;fill:rgb(11.759949%,9.01947%,7.449341%);fill-opacity:1;" d="M 265.355469 615.253906 L 135.394531 615.253906 L 135.394531 635.246094 L 265.355469 635.246094 L 265.355469 615.253906 "/>
<path style=" stroke:none;fill-rule:nonzero;fill:rgb(11.759949%,9.01947%,7.449341%);fill-opacity:1;" d="M 135.394531 595.257812 L 305.34375 595.257812 L 305.34375 575.265625 L 135.394531 575.265625 L 135.394531 595.257812 "/>
<path style=" stroke:none;fill-rule:nonzero;fill:rgb(11.759949%,9.01947%,7.449341%);fill-opacity:1;" d="M 135.394531 555.269531 L 305.34375 555.269531 L 305.34375 535.277344 L 135.394531 535.277344 L 135.394531 555.269531 "/>
<path style=" stroke:none;fill-rule:nonzero;fill:rgb(11.759949%,9.01947%,7.449341%);fill-opacity:1;" d="M 355.328125 495.289062 L 155.390625 495.289062 L 155.390625 315.339844 L 355.328125 315.339844 Z M 375.324219 295.347656 L 135.394531 295.347656 L 135.394531 515.28125 L 375.324219 515.28125 L 375.324219 295.347656 "/>
<path style=" stroke:none;fill-rule:nonzero;fill:rgb(11.759949%,9.01947%,7.449341%);fill-opacity:1;" d="M 395.316406 315.339844 L 515.28125 315.339844 L 515.28125 295.347656 L 395.316406 295.347656 L 395.316406 315.339844 "/>
<path style=" stroke:none;fill-rule:nonzero;fill:rgb(11.759949%,9.01947%,7.449341%);fill-opacity:1;" d="M 395.316406 355.328125 L 515.28125 355.328125 L 515.28125 335.335938 L 395.316406 335.335938 L 395.316406 355.328125 "/>
<path style=" stroke:none;fill-rule:nonzero;fill:rgb(11.759949%,9.01947%,7.449341%);fill-opacity:1;" d="M 395.316406 395.316406 L 515.28125 395.316406 L 515.28125 375.324219 L 395.316406 375.324219 L 395.316406 395.316406 "/>
<path style=" stroke:none;fill-rule:nonzero;fill:rgb(11.759949%,9.01947%,7.449341%);fill-opacity:1;" d="M 195.378906 435.304688 L 175.382812 435.304688 L 175.382812 455.300781 L 195.378906 455.300781 L 195.378906 435.304688 "/>
<path style=" stroke:none;fill-rule:nonzero;fill:rgb(11.759949%,9.01947%,7.449341%);fill-opacity:1;" d="M 195.378906 355.328125 L 235.367188 355.328125 L 235.367188 335.335938 L 175.382812 335.335938 L 175.382812 415.3125 L 195.378906 415.3125 L 195.378906 355.328125 "/>
<path style=" stroke:none;fill-rule:nonzero;fill:rgb(11.759949%,9.01947%,7.449341%);fill-opacity:1;" d="M 515.28125 585.261719 L 495.289062 585.261719 L 495.289062 655.242188 L 475.292969 655.242188 L 475.292969 675.234375 L 515.28125 675.234375 L 515.28125 585.261719 "/>
<path style=" stroke:none;fill-rule:nonzero;fill:rgb(11.759949%,9.01947%,7.449341%);fill-opacity:1;" d="M 455.300781 655.242188 L 435.304688 655.242188 L 435.304688 675.234375 L 455.300781 675.234375 L 455.300781 655.242188 "/>
</g>
</svg>
